<svg width="132" height="34" viewBox="0 0 132 34" fill="none" xmlns="http://www.w3.org/2000/svg">
<g clip-path="url(#clip0_1644_746)">
<path d="M23.5576 28.4563H25.0978V19.2687H23.5576V17.5162H32.7024V20.8043H30.6809V19.503H27.4605V23.2075H31.6173V24.96H27.4605V28.4563H29.1495V30.2088H23.5576V28.4563Z" fill="#202121"/>
<path d="M56.2774 28.4476V24.3353C56.2774 21.9408 55.0872 20.8651 53.232 20.8651C51.7706 20.8651 50.633 21.776 50.1342 22.8518H50.0992C49.7404 21.455 48.7253 20.8651 47.4476 20.8651C45.9337 20.8651 44.8661 21.9755 44.4023 22.9038V22.097C44.4023 21.455 43.9997 21.0819 43.1946 21.0819H40.7969V22.8344H41.8207C42.0745 22.8344 42.2145 22.9559 42.2145 23.2075V30.1914H45.8199V28.4389H44.5073V26.2874C44.5073 24.639 45.2511 22.9472 46.8701 22.9472C47.9552 22.9472 48.1127 23.7801 48.1127 24.7691V30.2001H51.7181V28.4476H50.3792V26.1746C50.3792 24.4915 51.158 22.9385 52.7245 22.9385C53.7921 22.9385 53.9846 23.728 53.9846 24.7604V30.1914H57.6075V28.4389H56.2774V28.4476Z" fill="#202121"/>
<path d="M40.4819 28.4563C40.2282 28.4563 40.0882 28.3348 40.0882 28.0659V24.4655C40.0882 22.1404 38.7755 20.8737 36.299 20.8737C34.085 20.8737 32.6586 22.0016 32.6586 22.0016L33.5074 23.5719C33.5074 23.5719 34.7325 22.6956 36.1065 22.6956C37.0603 22.6956 37.8041 23.1034 37.8041 24.2659V24.5696H37.2266C35.7477 24.5696 32.0547 24.8559 32.0547 27.6408C32.0547 29.4973 33.5337 30.4083 35.1001 30.4083C37.0428 30.4083 37.8567 28.9508 37.9792 28.6905V29.2284C37.9792 29.7489 38.303 30.1914 39.1518 30.1914H41.3133V28.4563H40.4819ZM37.8129 26.2526C37.8129 27.3978 36.929 28.7165 35.6864 28.7165C34.8376 28.7165 34.3475 28.1439 34.3475 27.4672C34.3475 26.0878 36.5265 25.949 37.4279 25.949H37.8129V26.2526Z" fill="#202121"/>
<path d="M60.8018 17.5162H58.509V19.5377H60.8018V17.5162ZM60.8018 28.4476V21.0819H57.0914V22.8344H58.5178V30.2001H62.1232V28.4476H60.8018Z" fill="#202121"/>
<path d="M66.2974 28.4129C65.5711 28.3955 65.3961 27.9704 65.3961 27.1636V17.5162H61.7032V19.26H63.1296V27.3111C63.1296 29.7923 64.4772 30.2782 65.9386 30.2782H66.77V28.4216H66.2974V28.4129Z" fill="#202121"/>
<path d="M79.9141 26.1138V27.0595C79.9141 27.8837 80.9642 28.3608 82.1718 28.3608C83.467 28.3608 84.3946 27.8056 84.3946 26.7905C84.3946 25.5065 82.9332 25.0901 81.4543 24.5175C79.7391 23.8755 78.0676 23.1033 78.0676 20.839C78.0676 18.2883 80.1591 17.2993 82.3556 17.2993C84.3771 17.2993 86.4161 18.0628 86.4161 19.529V21.186H84.2721V20.3271C84.2721 19.6851 83.3182 19.3468 82.3644 19.3468C81.3143 19.3468 80.4567 19.7719 80.4567 20.7436C80.4567 21.9061 81.6468 22.3139 82.9769 22.8171C84.8934 23.4938 86.8011 24.2485 86.8011 26.6257C86.8011 29.2197 84.6046 30.417 82.1893 30.417C80.0629 30.417 77.7876 29.4713 77.7876 27.5627V26.1138H79.9141Z" fill="#202121"/>
<path d="M130.67 28.4476V24.3353C130.67 21.9234 129.41 20.865 127.371 20.865C125.804 20.865 124.763 21.802 124.299 22.6695V17.4988H120.589V19.2513H122.015V30.1914H125.621V28.4389H124.299V26.0097C124.299 24.3353 125.314 22.9385 126.933 22.9385C128.088 22.9385 128.377 23.6846 128.377 24.7951V30.1914H132V28.4389H130.67V28.4476Z" fill="#202121"/>
<path d="M108.941 26.5216C108.941 24.8038 109.772 23.1988 111.628 23.1988H112.188V20.9604H111.768C110.359 20.9604 109.265 22.0015 108.845 23.3029V22.1924C108.845 21.4289 108.433 21.0819 107.62 21.0819H105.222V22.8344H106.246C106.499 22.8344 106.648 22.9732 106.648 23.2248V30.2001H110.254V28.4562H108.932V26.5216H108.941Z" fill="#202121"/>
<path d="M104.915 28.4563C104.662 28.4563 104.522 28.3348 104.522 28.0659V24.4655C104.522 22.1404 103.209 20.8737 100.732 20.8737C98.5185 20.8737 97.0921 22.0016 97.0921 22.0016L97.9409 23.5719C97.9409 23.5719 99.166 22.6956 100.54 22.6956C101.494 22.6956 102.238 23.1034 102.238 24.2659V24.5696H101.66C100.181 24.5696 96.4795 24.8559 96.4795 27.6408C96.4795 29.4973 97.9584 30.4083 99.5248 30.4083C101.468 30.4083 102.281 28.9508 102.413 28.6905V29.2284C102.413 29.7489 102.736 30.1914 103.585 30.1914H105.747V28.4563H104.915ZM102.246 26.2526C102.246 27.3978 101.363 28.7165 100.12 28.7165C99.2711 28.7165 98.7898 28.1439 98.7898 27.4672C98.7898 26.0878 100.969 25.949 101.87 25.949H102.246V26.2526Z" fill="#202121"/>
<path d="M94.8431 27.7709C94.6156 27.927 93.7055 28.517 92.4016 28.517C91.0102 28.517 89.7851 27.6581 89.6363 26.3307H96.1733V25.7147C96.1733 20.6134 91.9641 20.8737 91.9641 20.8737C89.1988 20.8737 87.291 22.8431 87.291 25.654C87.291 28.248 89.19 30.4343 92.2354 30.4343C94.2393 30.4343 95.4295 29.6101 95.7095 29.3932L94.8431 27.7709ZM91.9203 22.7216C93.0842 22.7216 93.9068 23.4157 94.1343 24.5869H89.7063C89.9338 23.4157 90.7564 22.7216 91.9203 22.7216Z" fill="#202121"/>
<path d="M120.247 27.554C119.687 27.9531 118.733 28.4996 117.596 28.4996C116.029 28.4996 114.708 27.4846 114.708 25.602C114.708 23.9362 115.741 22.7997 117.412 22.7997C118.191 22.7997 119.127 23.086 119.127 23.6933V24.3006H121.105V23.0513C121.105 21.4376 118.873 20.8737 117.333 20.8737C114.507 20.8737 112.398 22.9472 112.398 25.6627C112.398 28.6124 114.778 30.417 117.465 30.417C119.075 30.417 120.414 29.7229 121.105 29.1503L120.247 27.554Z" fill="#202121"/>
<path d="M70.8218 22.8344V21.0819H66.2975V22.8344H67.4176L70.5505 30.4517C70.0429 31.7443 69.3341 32.1347 68.7128 32.1521C68.2927 32.1434 67.9514 32.0393 67.7152 31.9265V33.8525C68.039 33.9393 68.4153 34 68.8528 34C70.4192 34 71.7319 33.1758 72.432 31.3713L75.8011 22.8257H76.8687V21.0732H72.5282V22.8257H73.5696L71.6794 28.0832L69.7892 22.8257" fill="#202121"/>
<path d="M11.7963 27.4065C13.4765 26.3134 14.7804 24.7084 15.3229 22.5134H14.3866C13.8002 24.1098 12.6451 25.1075 11.1837 25.6454C10.8074 24.3353 10.6149 22.9472 10.6149 21.5157C10.6149 18.4359 11.5337 15.5729 13.1177 13.1784H11.1837C9.66103 15.2779 8.62841 17.7505 8.23462 20.4313C7.15825 19.7633 6.3094 18.913 5.81059 17.5249H4.78673C5.37304 19.6765 6.51067 21.16 8.0596 22.3226C8.0596 22.4874 8.05085 22.6523 8.05085 22.8171C8.05085 27.0248 9.63477 30.8681 12.2426 33.7918H16.8631C14.6491 32.1695 12.8814 29.9659 11.7963 27.4065Z" fill="#202121"/>
<path d="M17.2218 13.9245H24.9227V6.28986H17.2218V13.9245ZM23.1112 12.1286H19.0333V8.08572H23.1112V12.1286Z" fill="#202121"/>
<path d="M12.689 23.3636H20.8449V15.2779H12.689V23.3636ZM19.0335 21.5591H14.5005V17.0651H19.0335V21.5591Z" fill="#202121"/>
<path d="M9.51241 13.9245H15.8569V7.63458H9.51241V13.9245ZM14.5005 12.5797H10.8776V8.98799H14.5005V12.5797Z" fill="#202121"/>
<path d="M3.16789 8.98798H8.15595V4.04285H3.16789V8.98798ZM6.79955 7.63458H4.53305V5.38758H6.79955V7.63458Z" fill="#202121"/>
<path d="M9.51241 6.28987H15.8569V0H9.51241V6.28987ZM14.5005 4.94514H10.8776V1.34473H14.5005V4.94514Z" fill="#202121"/>
<path d="M0 18.4185H8.15592V10.3328H0V18.4185ZM6.34446 16.6226H1.81145V12.1286H6.34446V16.6226Z" fill="#202121"/>
</g>
<defs>
<clipPath id="clip0_1644_746">
<rect width="132" height="34" fill="white"/>
</clipPath>
</defs>
</svg>
