<svg width="25" height="36" viewBox="0 0 25 36" fill="none" xmlns="http://www.w3.org/2000/svg">
<path d="M12.5 0.5C19.1274 0.5 24.5 5.87258 24.5 12.5V35.5H0.5V12.5C0.5 5.87258 5.87258 0.5 12.5 0.5Z" fill="#306F91" stroke="white"/>
<path d="M13.9823 34.3993C13.9791 34.4383 13.9964 34.4603 14.0362 34.4628L14.0385 34.4669C14.0387 34.6466 14.037 34.6996 14.0893 34.7132L14.2854 34.7136C14.1842 34.7136 14.1245 34.7224 14.0893 34.7132L12.0596 34.709C12.05 34.71 12.0393 34.7105 12.0274 34.7104C11.8361 34.7091 11.6448 34.7083 11.4534 34.7077L11.1797 34.7072L7.94479 34.7103C7.90839 34.7388 7.85336 34.7104 7.81445 34.7104L7.94479 34.7103C7.95615 34.7014 7.96569 34.687 7.97237 34.6644C7.98098 34.666 7.98959 34.6685 7.99821 34.6685C7.99821 34.6685 8.00331 34.66 8.00331 34.6552C8.00235 34.5253 8.08051 34.4498 8.17622 34.3736C8.30351 34.272 8.46875 34.2428 8.59158 34.1351C8.78075 33.9691 8.95175 33.7868 9.11859 33.5986C9.28895 33.4068 9.65326 33.4798 9.72855 33.7233C9.80703 33.9777 9.7965 34.2402 9.72408 34.4968C9.67751 34.6622 9.69888 34.7057 9.86094 34.706C10.3918 34.7072 10.9227 34.7063 11.4534 34.7077L12.0596 34.709C12.1353 34.7008 12.1407 34.6585 12.1237 34.5866C12.0944 34.4618 12.0886 34.3336 12.0998 34.2085C12.1189 33.9986 12.1224 33.7938 12.1008 33.5811C12.0762 33.3427 12.1151 33.0947 12.4032 32.9864C12.4884 32.9544 12.5563 32.8785 12.6351 32.8267C12.9343 32.6312 13.202 32.3972 13.455 32.1473C13.5028 32.1 13.5389 32.1146 13.5781 32.1308C13.6005 32.14 13.6295 32.1657 13.6036 32.2067C13.4333 32.4772 13.4084 32.7991 13.292 33.0899C13.1813 33.3668 13.1867 33.6246 13.448 33.8557C13.6139 34.0027 13.773 34.1666 13.922 34.3358L13.9222 34.336C13.9403 34.354 13.9585 34.3721 13.9763 34.3901L13.9823 34.3993Z" fill="white"/>
<path d="M13.0454 33.9682C13.0454 33.9682 13.1523 33.9711 13.1351 33.8946C13.1102 33.7857 13.0292 33.7266 12.9265 33.7047C12.8767 33.6939 12.8193 33.7409 12.839 33.7866C12.8767 33.8723 13.0454 33.9682 13.0454 33.9682ZM9.21693 34.0746C9.27531 34.0079 9.36879 33.9698 9.37612 33.8663C9.37995 33.812 9.34613 33.7628 9.29573 33.772C9.19269 33.7914 9.16398 33.8898 9.13463 33.9727C9.1158 34.0254 9.17131 34.0492 9.21693 34.0746Z" fill="#306F91"/>
<path d="M16.2104 22.5002C16.1824 23.2656 16.1712 24.0324 16.1205 24.7966C16.0905 25.2458 16.0902 25.6951 16.0685 26.144C16.0672 26.1691 16.0707 26.1961 16.0433 26.2136C15.9769 26.2037 15.9823 26.1529 15.9839 26.1056C15.9846 26.0774 15.9961 26.0497 16.0267 26.0488C16.0595 26.0475 16.0666 26.0764 16.0666 26.104C16.0666 26.1517 16.0713 26.1999 16.0646 26.2466C16.0063 26.6676 16.0235 27.0914 16.0126 27.514C15.9989 28.0585 15.9278 28.5976 15.879 29.1389C15.8681 29.2605 15.7836 29.3269 15.6904 29.3669C15.5698 29.4187 15.5261 29.5041 15.5006 29.6219C15.4566 29.8276 15.3255 29.987 15.1896 30.1384C14.817 30.5534 14.3834 30.8998 13.9378 31.2322C13.4149 31.6221 12.8955 32.0164 12.3672 32.399C12.0275 32.6447 11.6539 32.8412 11.2634 32.9879C11.0516 33.0676 10.8181 33.1105 10.5846 33.1441C10.1931 33.2003 9.80267 33.1702 9.41283 33.1943C9.33914 33.1987 9.26736 33.2041 9.1975 33.2397C9.14741 33.2654 9.08329 33.2734 9.03256 33.2308C8.96972 33.1778 8.99747 33.0965 9.02267 33.0549C9.15762 32.833 9.15411 32.6057 9.08169 32.3694C9.11902 32.0955 9.10115 31.8186 9.11998 31.5436C9.12157 31.5128 9.12285 31.4824 9.12444 31.4516C9.21089 31.3455 9.18091 31.2198 9.18442 31.0998C9.29065 30.4575 9.38221 29.8133 9.37072 29.1609C9.36498 28.8415 9.28299 28.5236 9.32319 28.2027C9.37615 27.7823 9.3838 27.3569 9.48142 26.9413C9.51237 26.8101 9.49992 26.6688 9.50726 26.532C9.5934 26.4136 9.56022 26.2777 9.56373 26.1472C9.62912 25.4325 9.7226 24.7191 9.70505 23.9994C9.69516 23.5873 9.67283 23.1758 9.69644 22.7627C9.70537 22.6037 9.77236 22.4563 9.76758 22.2963C9.76598 22.2398 9.81384 22.1938 9.8518 22.1687C10.39 21.8093 10.7151 21.2772 11.0491 20.7463C11.3381 20.2866 11.6105 19.8177 11.8431 19.3293C12.0186 18.9614 12.2173 18.594 12.2524 18.1749C12.2572 18.1184 12.38 18.0502 12.2623 18.0089C12.1758 17.9787 12.1567 18.0911 12.1267 18.1451C11.7822 18.7636 11.4864 19.4081 11.1011 20.0047C10.7495 20.5488 10.3645 21.067 9.86552 21.4823C9.60998 21.695 9.30788 21.8534 8.94547 21.8375C8.65676 21.8245 8.39517 21.7299 8.17218 21.5635C7.74693 21.2457 7.47513 20.8095 7.26936 20.326C7.12644 19.9897 6.99533 19.6494 6.90823 19.2963C6.81795 18.9296 6.73947 18.5604 6.6862 18.1838C6.64505 17.8921 6.64951 17.5968 6.58954 17.306C6.55476 17.1377 6.6157 16.9564 6.7752 16.8386C7.04509 16.6395 7.34146 16.4976 7.67834 16.4713C7.85571 16.4576 7.89495 16.516 7.89878 16.7224C7.90197 16.9075 7.90133 17.0926 7.89687 17.2774C7.88825 17.6212 7.88411 17.9676 7.92749 18.307C7.98938 18.7925 8.07201 19.2722 8.34317 19.7075C8.50076 19.9605 9.00704 20.0799 9.2597 20.025C9.75514 19.9173 10.107 19.5986 10.4551 19.2735C10.8529 18.902 11.2169 18.4978 11.5649 18.0797C12.0332 17.5174 12.4763 16.9361 12.9096 16.3468C13.2034 15.9471 13.4733 15.5321 13.7129 15.1C13.813 14.919 13.9017 14.7251 13.9926 14.5368C14.147 14.218 14.3072 13.9015 14.4466 13.576C14.5835 13.257 14.7133 12.9347 14.8409 12.6112C14.9701 12.2832 15.091 11.9524 15.2113 11.6212C15.2626 11.4799 15.3111 11.338 15.3567 11.1948C15.3992 11.0612 15.4598 11.0863 15.522 11.1755C15.619 11.3139 15.6857 11.4685 15.686 11.6374C15.6876 12.3721 15.7523 13.1042 15.7772 13.838C15.8021 14.566 15.8541 15.294 15.9042 16.0211C15.9393 16.5303 15.976 17.0405 16.0311 17.5476C16.0819 18.0121 16.1125 18.4794 16.1884 18.942C16.219 19.1284 16.2047 19.3217 16.2108 19.5119C16.2114 19.9123 16.2127 20.3126 16.2123 20.713C16.2123 21.3083 16.2108 21.9039 16.2098 22.4992L16.2104 22.5002ZM13.0787 25.5106C13.1664 25.4195 13.1348 25.3046 13.1415 25.1969C13.1571 25.1528 13.1791 25.11 13.1871 25.0646C13.2547 24.6886 13.3304 24.3137 13.3836 23.9359C13.4612 23.386 13.5559 22.8386 13.6379 22.2897C13.6998 21.8744 13.7671 21.4597 13.8283 21.0448C13.9234 20.4003 14.0322 19.758 14.1107 19.1106C14.1317 18.9357 14.1394 18.7563 14.1773 18.5848C14.2565 18.2261 14.2711 17.8587 14.3391 17.4984C14.3898 17.2298 14.3755 16.9488 14.4319 16.6821C14.4737 16.4856 14.4858 16.2862 14.5104 16.0903C14.5503 15.7725 14.6185 15.4556 14.6083 15.1327C14.6074 15.1016 14.6201 15.0521 14.5665 15.0441C14.5181 15.0368 14.498 15.0648 14.475 15.1079C14.379 15.2902 14.333 15.4883 14.2995 15.6861C14.2073 16.2287 14.1183 16.7723 14.0494 17.318C13.9907 17.7822 13.9279 18.2451 13.8558 18.7074C13.7786 19.2011 13.7215 19.698 13.6398 20.191C13.6149 20.3422 13.6069 20.4965 13.5731 20.6438C13.4717 21.0867 13.4292 21.5394 13.3367 21.9836C13.28 22.2557 13.2503 22.5335 13.1938 22.8059C13.0997 23.259 12.9842 23.7076 12.8959 24.1613C12.7778 24.7671 12.5864 25.3541 12.4438 25.9535C12.3746 26.2444 12.2904 26.5371 12.2004 26.8257C12.0466 27.3178 11.9056 27.8144 11.7487 28.3062C11.5467 28.9386 11.3075 29.5539 11.0229 30.1552C10.7734 30.6817 10.4768 31.1728 10.1108 31.6249C10.0368 31.7164 9.97302 31.8157 9.90603 31.9123C9.8786 31.9519 9.88147 32.0021 9.91209 32.0294C9.94368 32.0577 9.97909 32.0415 10.0183 32.0075C10.0627 31.9691 10.1137 31.9373 10.1574 31.8948C10.7702 31.2989 11.2418 30.5982 11.6565 29.8597C11.8973 29.431 12.0932 28.9802 12.2632 28.5167C12.3641 28.2417 12.47 27.9674 12.5497 27.6867C12.6343 27.3899 12.7319 27.0962 12.788 26.7895C12.8282 26.5707 12.8553 26.3441 12.9479 26.1358C13.0161 26.0447 13.019 25.9396 13.0133 25.8323L13.0139 25.8288C13.0956 25.7367 13.0767 25.6243 13.0774 25.516L13.078 25.5106H13.0787Z" fill="white"/>
<path d="M19.8459 23.7047C19.7965 24.107 19.7461 24.5089 19.6644 24.9067C19.629 25.0801 19.6249 25.2592 19.6006 25.4354C19.5202 26.0211 19.4909 26.6123 19.5534 27.201C19.5856 27.5067 19.5674 27.8121 19.593 28.1166C19.5729 28.8583 19.6711 29.5999 19.5936 30.3413C19.6012 30.4362 19.5406 30.5105 19.5014 30.5851C19.4647 30.655 19.3773 30.6956 19.288 30.682C19.0851 30.6512 18.9629 30.3794 19.0535 30.1914C19.1128 30.0682 19.1757 29.9374 19.1904 29.8047C19.2165 29.5663 19.0768 29.3955 18.8873 29.2701C18.7543 29.1821 18.6267 29.0942 18.5581 28.9443C18.568 28.8897 18.5574 28.8434 18.5038 28.8151C18.5026 28.7941 18.5013 28.7735 18.5 28.7525C18.5041 28.1547 18.5057 27.5572 18.4419 26.9616C18.4349 26.8968 18.4174 26.8616 18.3459 26.8911C18.2359 26.8622 18.2422 26.9355 18.2445 27.0054C18.2343 27.0174 18.2161 27.0289 18.2154 27.0413C18.1893 27.5683 18.1689 28.0957 18.1813 28.6236C18.1756 28.8138 18.174 29.0043 18.1634 29.1942C18.1536 29.3761 18.0355 29.4469 17.8699 29.3704C17.4922 29.1958 17.1356 28.983 16.8443 28.6856C16.629 28.4659 16.4124 28.2392 16.3677 27.9064C16.3396 27.6982 16.4133 27.5153 16.4816 27.3327C16.6156 26.9755 16.746 26.6199 16.6436 26.2316C16.622 26.1491 16.598 26.0624 16.5636 25.9856C16.3479 25.5036 16.2841 24.9972 16.3476 24.4823C16.3836 24.1911 16.5081 23.9184 16.6743 23.6673C16.7965 23.4828 16.8721 23.2755 16.836 23.0478C16.7843 22.7202 16.9231 22.4401 17.0644 22.1671C17.1486 22.0045 17.1879 21.8286 17.2022 21.6616C17.215 21.5137 17.1423 21.3476 17.073 21.206C16.9473 20.9492 16.9384 20.7019 17.0134 20.4263C17.1008 20.1043 17.2217 19.7938 17.3027 19.4693C17.4303 18.9591 17.5867 18.4556 17.7478 17.9546C17.7883 17.8285 17.8473 17.7019 17.9175 17.5825C17.9558 17.5174 17.9931 17.5107 18.0524 17.5098C18.122 17.5088 18.1114 17.5634 18.1325 17.6031C18.1826 17.6974 18.1765 17.7958 18.1768 17.8955C18.18 18.7207 18.1835 19.5455 18.187 20.3707C18.1855 20.418 18.1819 20.4653 18.1823 20.5126C18.1858 21.7702 18.1893 23.0278 18.1931 24.2851C18.1934 24.3908 18.1778 24.5524 18.2914 24.5578C18.4448 24.5654 18.4333 24.401 18.4343 24.2826C18.4384 23.7438 18.4521 23.2047 18.4416 22.6659C18.4327 22.2182 18.4872 21.7747 18.4927 21.328C18.5045 20.3948 18.4812 19.4608 18.5456 18.5283C18.5644 18.2549 18.5613 17.9803 18.5683 17.7063C18.6952 17.678 18.8228 17.7041 18.9501 17.7022L18.9527 17.7028C19.1409 17.7901 19.3288 17.8774 19.517 17.9651C19.6175 18.0444 19.6239 18.1778 19.6322 18.2749C19.6491 18.4794 19.6922 18.6788 19.7135 18.882C19.7665 19.3909 19.8341 19.8986 19.896 20.4066C19.8973 20.4171 19.8982 20.4275 19.8989 20.438C19.9378 21.206 20.0179 21.9741 19.9589 22.7433C19.9416 22.9672 19.8954 23.1897 19.9027 23.4164C19.8108 23.4987 19.851 23.606 19.8469 23.705L19.8459 23.7047Z" fill="white"/>
<path d="M13.9088 9.95901C13.763 10.1933 13.6533 10.4489 13.54 10.6969C13.2749 11.2782 12.9476 11.8211 12.6231 12.3691C12.2997 12.9155 11.8313 13.3016 11.3289 13.6673C10.9789 13.9223 10.6236 14.1702 10.2749 14.4268C10.1533 14.516 10.0225 14.5932 9.90162 14.6836C9.80815 14.7535 9.76604 14.7005 9.76987 14.6224C9.78103 14.4027 9.68756 14.1969 9.69617 13.9798C9.70096 13.8607 9.63173 13.7585 9.62854 13.6423C9.60461 13.3787 9.61036 13.1159 9.63971 12.853C9.66969 12.586 9.75072 12.5352 9.99126 12.6402C10.0232 12.6542 10.0471 12.6863 10.0866 12.6885C10.1377 12.6914 10.2037 12.7222 10.2299 12.6628C10.2509 12.6152 10.2101 12.5758 10.1667 12.5374C9.97148 12.365 9.75806 12.2094 9.63301 11.9691C9.59504 11.8964 9.53794 11.8967 9.50157 11.9872C9.36248 12.3348 9.33026 12.7003 9.31176 13.0685C9.24476 13.3162 9.20489 13.5702 9.0894 13.8051C8.92798 14.1334 8.68457 14.3969 8.44244 14.6636C8.20605 14.924 7.96455 15.178 7.75783 15.4669C7.50612 15.819 7.13128 16.027 6.73123 16.1819C6.18572 16.393 5.64434 16.6092 5.15338 16.9359C5.01365 17.029 4.91794 17.1598 4.80501 17.2737C4.61073 17.47 4.38136 17.5576 4.11594 17.5928C3.72386 17.6449 3.32222 17.6547 2.9544 17.8278C2.92218 17.843 2.8941 17.8598 2.86443 17.8805C2.7598 17.9535 2.64814 18.0034 2.51798 17.917C2.47874 17.891 2.41494 17.9021 2.3623 17.896C2.32817 17.7821 2.2784 17.6954 2.13644 17.7652C2.12751 17.7697 2.11602 17.7684 2.10581 17.77L2.10422 17.769C2.06562 17.696 2.05094 17.6265 2.14282 17.5811C2.17408 17.5655 2.16643 17.5395 2.16962 17.5157L2.17057 17.515C2.21811 17.522 2.24235 17.5043 2.23597 17.4538C2.26947 17.4554 2.2851 17.4354 2.30998 17.4134C2.47077 17.2728 2.61433 17.1071 2.81116 17.0156C2.86699 16.9896 2.93621 16.9655 2.91548 16.9147C2.88708 16.8461 2.80861 16.8797 2.75214 16.9023C2.51511 16.9969 2.27872 17.0934 2.04201 17.1893C1.97183 17.1175 1.9948 17.0515 2.07232 17.0156C2.29818 16.9118 2.49788 16.7569 2.73842 16.6826C2.74576 16.6804 2.7464 16.6562 2.75023 16.6426C2.93845 16.6283 3.11933 16.5876 3.28745 16.4994C3.36051 16.4981 3.43356 16.4968 3.50661 16.4956C3.59658 16.5045 3.67123 16.5216 3.71621 16.6229C3.74013 16.6762 3.7379 16.7467 3.79277 16.7864C3.79469 16.7959 3.79724 16.8054 3.80011 16.8147C3.79182 16.8851 3.82085 16.9286 3.89326 16.9397C4.08021 17.0785 4.41868 17.0734 4.57692 16.9185C4.61807 16.8782 4.68953 16.8331 4.65763 16.7499C4.65763 16.627 4.56575 16.6877 4.52045 16.6921C4.31947 16.7115 4.10732 16.707 3.98833 16.5372C3.81096 16.2844 3.56372 16.1622 3.29128 16.0654C3.24055 16.0473 3.17898 16.0501 3.19972 15.9723C3.21854 15.9015 3.28298 15.9244 3.33147 15.919C3.49354 15.9006 3.64698 15.9603 3.79532 16.0016C3.96568 16.0485 4.16124 16.0174 4.30671 16.1251C4.56607 16.3171 4.76801 16.2108 4.96803 16.0339C4.9827 16.0209 4.9961 16.0057 5.01205 15.9939C5.46633 15.665 5.90721 15.3221 6.25143 14.8719C6.40488 14.6713 6.55577 14.4614 6.78355 14.3388C7.03685 14.2023 7.15872 13.9725 7.27898 13.7327C7.41839 13.4546 7.56738 13.193 7.83471 12.9962C8.06472 12.8269 8.27623 12.6177 8.42234 12.3599C8.54963 12.1904 8.69701 12.0322 8.80006 11.8491C8.99434 11.5046 9.22116 11.1887 9.50349 10.9115C9.56506 10.9286 9.57941 10.8651 9.61323 10.841C9.84643 10.674 10.013 10.3854 10.3671 10.4483C10.3709 10.4489 10.3757 10.4432 10.3805 10.4413C10.5227 10.3886 10.6392 10.3067 10.7352 10.1844C10.8446 10.0451 10.971 9.91933 11.1652 9.8971C11.4651 9.86281 11.647 9.66787 11.7723 9.41927C11.9133 9.14019 11.7098 8.92208 11.6138 8.6865C11.5981 8.61157 11.5449 8.54775 11.5484 8.46679C11.5452 8.28391 11.542 8.10104 11.5391 7.91816C11.5385 7.87054 11.5391 7.82228 11.4859 7.79783C11.4804 7.74576 11.4919 7.68353 11.467 7.64353C11.3627 7.4778 11.4042 7.30699 11.4444 7.1403C11.4591 7.07966 11.4852 7.02061 11.4827 6.95774C11.4686 6.62882 11.6671 6.45674 11.9385 6.33482C12.1306 6.24846 12.3616 6.21576 12.449 5.97955C12.4509 5.97415 12.4671 5.97383 12.4866 5.96875C12.4975 6.05352 12.5603 6.10686 12.6286 6.13512C12.7645 6.19163 12.9071 6.23322 13.0484 6.27545C13.1505 6.30593 13.2306 6.34371 13.2759 6.45737C13.3419 6.6231 13.3553 6.80884 13.4644 6.95774C13.4979 7.00346 13.5467 7.03585 13.4781 7.09966C13.4255 7.14824 13.3913 7.16792 13.3173 7.13776C13.0519 7.0295 12.575 7.17999 12.5788 7.63115C12.5801 7.78227 12.6193 7.92673 12.6161 8.07881C12.6113 8.30836 12.5654 8.35154 12.3552 8.26455C12.3223 8.2509 12.2796 8.23089 12.2617 8.27915C12.247 8.31852 12.2748 8.36456 12.3121 8.36297C12.4024 8.35884 12.4758 8.45854 12.5794 8.39028C12.6244 8.36043 12.7013 8.35821 12.7587 8.40329C12.8085 8.44234 12.8452 8.43663 12.8908 8.38456C12.9342 8.33503 12.9345 8.30614 12.9195 8.23883C12.8745 8.0404 12.7638 7.86133 12.7485 7.65591C12.7393 7.53272 12.8327 7.46859 12.945 7.52542C12.9986 7.55241 13.0628 7.56447 13.0934 7.53495C13.2296 7.4035 13.3636 7.5159 13.4468 7.57241C13.5965 7.67337 13.6542 7.76132 13.5298 7.95944C13.4756 8.04579 13.4539 8.14009 13.4539 8.24105C13.4539 8.31916 13.4408 8.3925 13.4159 8.46997C13.3483 8.68142 13.2487 8.88811 13.2727 9.12051C13.2794 9.18496 13.2542 9.24433 13.2073 9.2891C13.1632 9.33101 13.1049 9.36244 13.0844 9.27323C13.0583 9.15861 13.0213 9.24497 12.9859 9.26084C12.9479 9.27767 12.9533 9.3145 12.9533 9.34244C12.9536 9.44753 12.8481 9.50595 12.842 9.61263C12.8398 9.65549 12.761 9.64438 12.716 9.64723C12.6503 9.65168 12.6346 9.60564 12.6155 9.55103C12.6024 9.51357 12.5951 9.44594 12.5383 9.44658C12.4754 9.44753 12.5109 9.51357 12.4924 9.54627C12.4566 9.60882 12.4215 9.67835 12.3475 9.69962C12.1992 9.74216 12.2368 9.81582 12.3111 9.89234C12.3938 9.97743 12.4898 10.0447 12.5989 10.0965C12.8059 10.1949 12.9013 10.1847 13.0443 10.0168C13.123 9.92409 13.2069 9.86122 13.3355 9.89234C13.4564 9.94091 13.5441 9.83805 13.6513 9.82344C13.7381 9.82281 13.8255 9.80566 13.912 9.82789L13.9133 9.82947C13.912 9.87265 13.9107 9.91583 13.9094 9.95901H13.9088ZM12.367 7.46478C12.2292 7.20793 12.0208 7.12919 11.7529 7.15745C11.6195 7.17142 11.595 7.27492 11.5688 7.36255C11.5497 7.427 11.6285 7.45811 11.6872 7.47716C11.9133 7.55114 12.1379 7.53368 12.367 7.46478ZM10.7355 13.5559C10.7349 13.5222 10.7039 13.521 10.6851 13.5048C10.5645 13.4016 10.3999 13.4025 10.2669 13.3283C10.2382 13.3124 10.1788 13.2848 10.1549 13.3349C10.1335 13.38 10.1536 13.4276 10.2056 13.4518C10.3345 13.5114 10.4612 13.5762 10.5929 13.6289C10.6558 13.654 10.702 13.6076 10.7352 13.5556L10.7355 13.5559ZM3.56404 17.242C3.57393 17.242 3.63007 17.2668 3.67506 17.2264C3.71493 17.1902 3.79245 17.1598 3.75353 17.0934C3.72323 17.0417 3.66868 16.9851 3.58828 17.0169C3.53022 17.0398 3.4645 17.0556 3.41952 17.0944C3.39081 17.1191 3.31457 17.128 3.34073 17.1906C3.35923 17.2347 3.40485 17.2579 3.4594 17.2477C3.48014 17.2439 3.50151 17.2452 3.56404 17.242ZM12.122 8.6684C12.3781 8.68364 12.6334 8.71444 12.8863 8.65602C12.6302 8.52331 12.3746 8.52838 12.122 8.6684ZM12.724 8.91985C12.634 8.82746 12.4238 8.78302 12.3344 8.83381C12.3092 8.8481 12.2802 8.87223 12.2895 8.90811C12.2965 8.93573 12.3223 8.9516 12.3504 8.94811C12.4716 8.93351 12.5973 8.96208 12.7236 8.91985H12.724Z" fill="white"/>
<path d="M8.48047 15.7345C8.50408 15.4275 8.63136 15.1618 8.77141 14.8897C8.90029 14.6401 9.08756 14.4464 9.2544 14.2321C9.31789 14.1505 9.36606 14.1407 9.41678 14.2547C9.53131 14.5115 9.45474 14.9509 9.24898 15.1373C9.07416 15.2954 8.89328 15.4481 8.82947 15.6894C8.77811 15.8831 8.83298 16.0628 8.92263 16.2292C8.9692 16.3162 9.00685 16.2441 9.03141 16.1955C9.10032 16.0587 9.14689 15.9152 9.12743 15.7609C9.10383 15.5739 9.17146 15.4624 9.35585 15.3938C9.7106 15.2621 9.98718 15.0046 10.288 14.7862C10.9002 14.341 11.4929 13.8718 12.079 13.393C12.4273 13.1085 12.658 12.7399 12.8854 12.3669C13.2791 11.7217 13.6766 11.0788 14.0543 10.4238C14.1076 10.3317 14.1775 10.2431 14.2362 10.1511C14.3258 10.0104 14.4231 9.98058 14.581 10.0631C14.8059 10.1809 14.9728 10.3803 14.9169 10.5457C14.8324 10.7969 14.7546 11.0509 14.642 11.2921C14.5217 11.55 14.4142 11.8144 14.2859 12.0681C14.1306 12.3754 13.9755 12.6831 13.7946 12.9784C13.6249 13.2555 13.46 13.5349 13.2836 13.808C12.8979 14.4052 12.4599 14.9614 11.9759 15.4805C11.5832 15.9015 11.1739 16.3066 10.7171 16.6616C10.3946 16.9124 10.0558 17.1337 9.67901 17.2947C9.28024 17.4649 8.96537 17.3398 8.7376 17.002C8.57649 16.7632 8.49993 16.4981 8.48079 16.2143C8.48079 16.0546 8.48079 15.8945 8.48079 15.7348L8.48047 15.7345Z" fill="white"/>
<path d="M8.10579 17.2562C8.11249 17.0575 8.0892 16.8419 8.14216 16.6273C8.15524 16.5749 8.18235 16.5613 8.21266 16.5441C8.25892 16.5178 8.27933 16.5657 8.29624 16.593C8.37631 16.7229 8.38333 16.8765 8.42959 17.0178C8.52817 17.3185 8.61717 17.6226 8.91705 17.7988C9.14993 17.9357 9.39302 17.9233 9.64281 17.8592C10.1098 17.7395 10.4994 17.4756 10.8643 17.1813C11.2727 16.8521 11.6488 16.4847 11.9968 16.0917C12.3953 15.6418 12.7637 15.169 13.0946 14.6665C13.3622 14.2594 13.5977 13.8362 13.8296 13.4082C14.0621 12.9793 14.2784 12.5424 14.5027 12.1097C14.6418 11.8414 14.7397 11.5518 14.8769 11.2823C14.9516 11.1359 14.9854 10.9772 15.0562 10.8308C15.0811 10.7797 15.1248 10.7333 15.1647 10.7464C15.209 10.7606 15.2549 10.8022 15.2473 10.8781C15.2275 11.0654 15.1557 11.2378 15.1031 11.4147C15.0367 11.6372 14.9468 11.8535 14.859 12.0697C14.7318 12.3843 14.6102 12.7024 14.4635 13.0082C14.2213 13.512 14.0012 14.0273 13.7189 14.5112C13.4104 15.0398 13.0764 15.5526 12.7175 16.0485C12.4441 16.4263 12.1704 16.8048 11.867 17.16C11.636 17.4309 11.4076 17.7046 11.1642 17.9643C10.738 18.4192 10.2952 18.858 9.76563 19.1977C9.58028 19.3168 9.38632 19.4165 9.17035 19.4695C8.8995 19.5359 8.5572 19.3412 8.42831 19.0368C8.28316 18.6935 8.1865 18.3395 8.15013 17.9646C8.1278 17.7338 8.10643 17.5042 8.10547 17.2566L8.10579 17.2562Z" fill="white"/>
<path d="M16.0223 12.7795C16.0223 12.5966 16.0207 12.4382 16.0235 12.2801C16.0242 12.2489 15.9971 12.2013 16.0535 12.188C16.103 12.1762 16.1189 12.2089 16.1473 12.2461C16.474 12.6725 16.7314 13.15 17.0989 13.5456C17.3312 13.7958 17.5797 14.0313 17.8279 14.266C17.9131 14.3463 17.951 14.4038 17.8735 14.5174C17.4725 15.1054 17.492 15.7725 17.5692 16.4303C17.6087 16.7672 17.5666 17.0752 17.498 17.3971C17.4355 17.6898 17.3436 17.974 17.2801 18.2661C17.2211 18.5369 17.1318 18.8007 17.0597 19.0687C16.986 19.3424 16.9088 19.6157 16.8501 19.8926C16.8313 19.9805 16.7777 20.0548 16.7745 20.1472C16.7729 20.1942 16.7254 20.2326 16.6801 20.2307C16.6386 20.2288 16.645 20.1752 16.637 20.1412C16.549 19.7612 16.5435 19.3725 16.5072 18.9868C16.4804 18.7036 16.474 18.4197 16.4456 18.1378C16.393 17.6108 16.3623 17.0818 16.3119 16.5554C16.2513 15.9182 16.2098 15.2791 16.132 14.6438C16.0838 14.2504 16.0905 13.8542 16.0548 13.4621C16.0334 13.2255 16.0302 12.9909 16.0219 12.7798L16.0223 12.7795Z" fill="white"/>
<path d="M20.3337 17.385C20.0105 17.4142 19.7422 17.2697 19.4672 17.1494C19.0152 16.9519 18.5765 16.7249 18.1133 16.5506C17.9478 16.4884 17.8948 16.316 17.8709 16.1591C17.8023 15.7089 17.9028 15.286 18.1267 14.8927C18.2291 14.7126 18.3465 14.6964 18.5086 14.8431C18.8605 15.1622 19.138 15.5499 19.4682 15.8883C19.7499 16.1772 20.0182 16.482 20.3579 16.7106C20.4683 16.7849 20.565 16.784 20.6712 16.7113C20.9535 16.5179 21.2808 16.476 21.6097 16.4382C21.679 16.4303 21.7294 16.4522 21.7504 16.5103C21.7747 16.5766 21.7268 16.6128 21.6694 16.6405C21.605 16.6713 21.5475 16.7179 21.4812 16.743C21.2978 16.8119 21.1523 16.9037 21.0256 17.0745C20.8671 17.2881 20.6211 17.4205 20.3337 17.3853V17.385Z" fill="white"/>
<path d="M12.0539 5.06055C12.4271 5.06912 12.3688 5.03229 12.3739 5.40154C12.3761 5.55171 12.326 5.69014 12.303 5.83364C12.2785 5.98668 12.1203 6.00541 12.0016 6.01366C11.874 6.02255 11.7614 6.07272 11.6424 6.10066C11.4924 6.1359 11.4669 6.29718 11.4238 6.41974C11.3872 6.52451 11.3699 6.6296 11.2927 6.72167C11.1093 6.94011 11.1316 7.18617 11.2056 7.44492C11.2736 7.684 11.3355 7.93133 11.1855 8.17008C11.1374 8.24691 11.1511 8.33835 11.182 8.41519C11.2382 8.55552 11.2359 8.68601 11.1734 8.82285C11.0914 9.00255 11.0433 9.18289 11.0793 9.39084C11.1115 9.57531 10.9022 9.80263 10.7159 9.84264C10.6024 9.86677 10.5092 9.9109 10.4566 10.0325C10.395 10.1744 10.2438 10.1989 10.1286 10.0963C10.0358 10.0138 9.95349 9.92169 9.81504 10.0201C9.7892 10.0385 9.74262 10.0296 9.7053 10.0293C9.65425 10.029 9.58152 10.0538 9.56174 9.99694C9.54132 9.93916 9.62586 9.93503 9.65585 9.89883C9.80228 9.72199 9.98858 9.59499 10.1774 9.46672C10.3449 9.35274 10.3535 9.14574 10.3877 8.96826C10.41 8.85333 10.4652 8.77522 10.551 8.7222C10.6595 8.65489 10.7392 8.57203 10.751 8.44725C10.7813 8.1269 10.9211 7.81989 10.8014 7.4808C10.7188 7.24649 10.7791 6.99154 10.9192 6.78136C11.0308 6.61373 11.0346 6.42228 11.0876 6.24226C11.1418 6.05843 11.2008 5.87809 11.302 5.71522C11.3304 5.6695 11.3249 5.626 11.331 5.5806C11.3549 5.57235 11.3875 5.57108 11.4009 5.55457C11.4296 5.51869 11.3635 5.46027 11.4398 5.42344C11.6542 5.31994 11.7968 5.09484 12.0536 5.06055H12.0539Z" fill="white"/>
<path d="M15.3852 10.2233C15.3906 10.2233 15.3973 10.2214 15.4008 10.224C15.6774 10.4062 16.0602 10.3589 16.2877 10.6685C16.4504 10.8898 16.608 11.1114 16.704 11.3647C16.8559 11.7654 17.1047 12.1102 17.3203 12.4731C17.5698 12.8931 17.847 13.2967 18.1147 13.7059C18.2321 13.8856 18.3536 14.0622 18.4921 14.2273C18.5125 14.2514 18.5923 14.3054 18.5096 14.3657C18.4465 14.4117 18.4127 14.3863 18.3639 14.3416C18.0621 14.0637 17.8091 13.7415 17.5484 13.4288C16.9519 12.7128 16.4115 11.9543 15.8749 11.193C15.6902 10.931 15.4997 10.6739 15.3424 10.3948C15.2889 10.2999 15.3096 10.2275 15.3855 10.2237L15.3852 10.2233Z" fill="white"/>
<path d="M14.5501 9.2575C14.5696 9.18543 14.5087 9.18321 14.4678 9.16321C14.3906 9.04066 14.2407 9.03335 14.1351 8.95525C13.9281 8.77142 13.8946 8.56442 14.019 8.31391C14.0971 8.15675 14.033 8.00499 13.9341 7.86593C13.7861 7.65734 13.7896 7.50367 13.9325 7.28714C13.9437 7.27031 13.9612 7.25412 13.9644 7.2357C13.9769 7.16078 13.9848 7.08902 14.0908 7.09188C14.1954 7.09442 14.1979 7.20142 14.1976 7.23951C14.1951 7.50018 14.3051 7.73131 14.36 7.97642C14.389 8.10595 14.3571 8.24914 14.352 8.38598C14.3479 8.49933 14.3945 8.56442 14.5157 8.56092C14.6921 8.64792 14.8152 8.77587 14.8784 8.9689C14.9125 9.07336 14.9961 9.15464 15.0998 9.21179C15.2357 9.28671 15.3228 9.4099 15.3608 9.55531C15.3959 9.6893 15.4836 9.73438 15.6032 9.75375C15.6396 9.75946 15.6779 9.76105 15.712 9.77343C15.8096 9.80867 15.9095 9.9652 15.8709 10.0354C15.8099 10.1465 15.6897 10.1151 15.6201 10.076C15.4935 10.0052 15.3665 10.015 15.2392 10.0265C15.0931 10.0395 14.9757 10.003 14.8889 9.88646C14.8245 9.8001 14.7406 9.73502 14.6519 9.68041C14.5275 9.60389 14.523 9.49816 14.5709 9.38609C14.5954 9.32862 14.6108 9.29179 14.5498 9.25687L14.5501 9.2575Z" fill="white"/>
<path d="M15.6879 33.1607C15.67 33.3204 15.5498 33.4267 15.4687 33.5509C15.3539 33.7268 15.2177 33.8896 15.0833 34.0525C15.0527 34.0896 14.973 34.1354 14.9506 34.1217C14.8907 34.0846 14.8157 34.0541 14.7953 33.9658C14.7659 33.8379 14.7503 33.7087 14.7289 33.5801C14.6425 33.0626 14.6747 32.5415 14.6648 32.0221C14.6635 31.9593 14.631 31.8691 14.7232 31.8351C14.8262 31.7973 14.875 31.8875 14.899 31.9504C15.0492 32.3418 15.3618 32.6187 15.596 32.9505C15.641 33.014 15.6965 33.073 15.6876 33.1613L15.6879 33.1607Z" fill="white"/>
<path d="M14.0964 6.71351C13.9918 6.79701 13.9175 6.73669 13.8738 6.64938C13.7768 6.45507 13.6007 6.32649 13.4763 6.15409C13.3914 6.03693 13.2246 6.02582 13.0848 6.02868C12.9623 6.03122 12.8606 5.98137 12.7604 5.93851C12.6436 5.88867 12.5645 5.78611 12.5664 5.6442C12.569 5.45433 12.5706 5.26447 12.5725 5.07461V5.07398C12.6229 5.08096 12.6411 5.05461 12.6405 5.00889C12.7004 5.00603 12.7604 5.00286 12.8204 5C13.0124 5.04667 13.199 5.10001 13.3522 5.2378C13.4434 5.32003 13.55 5.38576 13.6495 5.4591C13.7503 5.61626 13.8167 5.79088 13.869 5.96645C13.9436 6.216 14.1535 6.42555 14.0955 6.71415L14.0964 6.71351Z" fill="white"/>
<path d="M15.1133 31.0996C15.1289 30.7844 15.3181 30.5437 15.4677 30.2862C15.5232 30.1903 15.5771 30.0935 15.6346 29.9986C15.6566 29.9624 15.6661 29.8932 15.7283 29.9202C15.781 29.943 15.8209 29.9776 15.8231 30.0586C15.8311 30.3323 15.772 30.6005 15.7727 30.873C15.7736 31.2689 15.7724 31.6648 15.7733 32.0607C15.7733 32.1128 15.7679 32.1725 15.7902 32.2153C15.8346 32.3004 15.8247 32.3804 15.7535 32.4226C15.6652 32.4747 15.6199 32.3801 15.573 32.3261C15.3653 32.0874 15.2147 31.8159 15.1155 31.5162C15.1149 31.3771 15.1142 31.2384 15.1133 31.0993V31.0996Z" fill="white"/>
<path d="M8.23014 12.243C8.11976 12.322 8.06457 12.4481 7.9727 12.5427C7.94845 12.5706 7.862 12.5116 7.88433 12.6052C7.88497 12.5976 7.88305 12.5906 7.87891 12.5843C8.00268 12.25 8.16315 11.9328 8.33382 11.6207C8.35966 11.5737 8.35137 11.5312 8.36126 11.487C8.4895 11.4283 8.50258 11.2937 8.55139 11.1873C8.72143 10.8193 8.97632 10.5387 9.35372 10.3774C9.48515 10.3212 9.63445 10.3666 9.76844 10.3139C9.79013 10.3053 9.82236 10.312 9.82586 10.3488C9.82905 10.3812 9.80481 10.3853 9.7828 10.4009C9.61787 10.5177 9.43252 10.6107 9.31289 10.7828C9.28832 10.7879 9.27078 10.7955 9.2494 10.8165C8.82766 11.2343 8.57755 11.7728 8.23014 12.2427V12.243Z" fill="white"/>
<path d="M22.8379 17.9515C22.8172 17.9531 22.7968 17.9547 22.776 17.9566C22.7658 17.9566 22.7556 17.9566 22.7454 17.9566C22.7234 17.9566 22.7014 17.9566 22.6794 17.9566C22.5818 17.9464 22.562 18.0274 22.5243 18.0877L22.5231 18.0884C22.4733 18.0966 22.405 18.0626 22.3875 18.1461C22.1929 18.182 22.0359 18.0712 21.8659 18.0122C21.8021 17.9899 21.8136 17.9296 21.8129 17.8795C21.812 17.8328 21.8333 17.7887 21.8812 17.7883C22.1087 17.7883 22.1323 17.5807 22.234 17.4531C22.3856 17.4413 22.3281 17.2876 22.3948 17.2188C22.6188 17.2289 22.7716 17.38 22.9381 17.4981C23.0048 17.5455 23.0172 17.6442 22.956 17.7052C22.8973 17.7636 22.9021 17.8242 22.9001 17.8906C22.8692 17.9004 22.8245 17.8963 22.8376 17.9512L22.8379 17.9515Z" fill="white"/>
<path d="M15.5048 34.534C15.3227 34.5125 15.2904 34.4556 15.3603 34.2829C15.3699 34.2591 15.367 34.2289 15.3801 34.208C15.426 34.135 15.4372 34.0261 15.5546 34.0216C15.6707 34.0175 15.702 34.1165 15.7151 34.1934C15.7304 34.2829 15.8085 34.2918 15.8538 34.3347C15.9234 34.4004 15.9314 34.4509 15.879 34.5213C15.7543 34.5255 15.6292 34.5296 15.5045 34.534H15.5048Z" fill="white"/>
<path d="M21.4767 17.5876C21.4397 17.5848 21.3922 17.5794 21.3446 17.5775C21.3013 17.5756 21.2642 17.5616 21.2894 17.5136C21.3105 17.474 21.2432 17.3949 21.3395 17.3933C21.4461 17.3914 21.5581 17.3527 21.655 17.4371C21.6799 17.4587 21.7447 17.4543 21.7319 17.4962C21.7211 17.5314 21.6914 17.5803 21.6305 17.5775C21.5833 17.5752 21.5354 17.5835 21.477 17.5879L21.4767 17.5876Z" fill="white"/>
<path d="M12.8402 7.39692C12.8784 7.22928 13.0112 7.2969 13.1085 7.29563C13.156 7.295 13.2479 7.26738 13.2396 7.35723C13.2322 7.43882 13.1512 7.41279 13.0973 7.40263C13.0134 7.38707 12.9301 7.43343 12.8398 7.3966L12.8402 7.39692Z" fill="white"/>
<path d="M11.9388 7.40193C11.9337 7.40193 11.928 7.40352 11.9232 7.40193C11.8674 7.38161 11.7851 7.46257 11.7522 7.36256C11.742 7.33145 11.7682 7.30033 11.8055 7.2997C11.9057 7.29811 12.0164 7.247 12.098 7.34637C12.1239 7.3778 12.106 7.40511 12.0639 7.4067C12.0224 7.40828 11.9806 7.40701 11.9388 7.40701C11.9388 7.40543 11.9388 7.40384 11.9388 7.40225V7.40193Z" fill="white"/>
</svg>
