<svg width="74" height="74" viewBox="0 0 74 74" fill="none" xmlns="http://www.w3.org/2000/svg">
<rect width="74" height="74" rx="37" fill="white"/>
<path d="M37 19.5C43.6274 19.5 49 24.8726 49 31.5V54.5H25V31.5C25 24.8726 30.3726 19.5 37 19.5Z" fill="#306F91" stroke="white"/>
<path d="M38.4823 53.3993C38.4791 53.4383 38.4964 53.4603 38.5362 53.4628L38.5385 53.4669C38.5387 53.6466 38.537 53.6996 38.5893 53.7132L38.7854 53.7136C38.6842 53.7136 38.6245 53.7224 38.5893 53.7132L36.5596 53.709C36.55 53.71 36.5393 53.7105 36.5274 53.7104C36.3361 53.7091 36.1448 53.7083 35.9534 53.7077L35.6797 53.7072L32.4448 53.7103C32.4084 53.7388 32.3534 53.7104 32.3145 53.7104L32.4448 53.7103C32.4561 53.7014 32.4657 53.687 32.4724 53.6644C32.481 53.666 32.4896 53.6685 32.4982 53.6685C32.4982 53.6685 32.5033 53.66 32.5033 53.6552C32.5024 53.5253 32.5805 53.4498 32.6762 53.3736C32.8035 53.272 32.9688 53.2428 33.0916 53.1351C33.2808 52.9691 33.4517 52.7868 33.6186 52.5986C33.7889 52.4068 34.1533 52.4798 34.2286 52.7233C34.307 52.9777 34.2965 53.2402 34.2241 53.4968C34.1775 53.6622 34.1989 53.7057 34.3609 53.706C34.8918 53.7072 35.4227 53.7063 35.9534 53.7077L36.5596 53.709C36.6353 53.7008 36.6407 53.6585 36.6237 53.5866C36.5944 53.4618 36.5886 53.3336 36.5998 53.2085C36.6189 52.9986 36.6224 52.7938 36.6008 52.5811C36.5762 52.3427 36.6151 52.0947 36.9032 51.9864C36.9884 51.9544 37.0563 51.8785 37.1351 51.8267C37.4343 51.6312 37.702 51.3972 37.955 51.1473C38.0028 51.1 38.0389 51.1146 38.0781 51.1308C38.1005 51.14 38.1295 51.1657 38.1036 51.2067C37.9333 51.4772 37.9084 51.7991 37.792 52.0899C37.6813 52.3668 37.6867 52.6246 37.948 52.8557C38.1139 53.0027 38.273 53.1666 38.422 53.3358L38.4222 53.336C38.4403 53.354 38.4585 53.3721 38.4763 53.3901L38.4823 53.3993Z" fill="white"/>
<path d="M37.5454 52.9682C37.5454 52.9682 37.6523 52.9711 37.6351 52.8946C37.6102 52.7857 37.5292 52.7266 37.4265 52.7047C37.3767 52.6939 37.3193 52.7409 37.339 52.7866C37.3767 52.8723 37.5454 52.9682 37.5454 52.9682ZM33.7169 53.0746C33.7753 53.0079 33.8688 52.9698 33.8761 52.8663C33.88 52.812 33.8461 52.7628 33.7957 52.772C33.6927 52.7914 33.664 52.8898 33.6346 52.9727C33.6158 53.0254 33.6713 53.0492 33.7169 53.0746Z" fill="#306F91"/>
<path d="M40.7104 41.5002C40.6824 42.2656 40.6712 43.0324 40.6205 43.7966C40.5905 44.2458 40.5902 44.6951 40.5685 45.144C40.5672 45.1691 40.5707 45.1961 40.5433 45.2136C40.4769 45.2037 40.4823 45.1529 40.4839 45.1056C40.4846 45.0774 40.4961 45.0497 40.5267 45.0488C40.5595 45.0475 40.5666 45.0764 40.5666 45.104C40.5666 45.1517 40.5713 45.1999 40.5646 45.2466C40.5063 45.6676 40.5235 46.0914 40.5126 46.514C40.4989 47.0585 40.4278 47.5976 40.379 48.1389C40.3681 48.2605 40.2836 48.3269 40.1904 48.3669C40.0698 48.4187 40.0261 48.5041 40.0006 48.6219C39.9566 48.8276 39.8255 48.987 39.6896 49.1384C39.317 49.5534 38.8834 49.8998 38.4378 50.2322C37.9149 50.6221 37.3955 51.0164 36.8672 51.399C36.5275 51.6447 36.1539 51.8412 35.7634 51.9879C35.5516 52.0676 35.3181 52.1105 35.0846 52.1441C34.6931 52.2003 34.3027 52.1702 33.9128 52.1943C33.8391 52.1987 33.7674 52.2041 33.6975 52.2397C33.6474 52.2654 33.5833 52.2734 33.5326 52.2308C33.4697 52.1778 33.4975 52.0965 33.5227 52.0549C33.6576 51.833 33.6541 51.6057 33.5817 51.3694C33.619 51.0955 33.6012 50.8186 33.62 50.5436C33.6216 50.5128 33.6228 50.4824 33.6244 50.4516C33.7109 50.3455 33.6809 50.2198 33.6844 50.0998C33.7906 49.4575 33.8822 48.8133 33.8707 48.1609C33.865 47.8415 33.783 47.5236 33.8232 47.2027C33.8761 46.7823 33.8838 46.3569 33.9814 45.9413C34.0124 45.8101 33.9999 45.6688 34.0073 45.532C34.0934 45.4136 34.0602 45.2777 34.0637 45.1472C34.1291 44.4325 34.2226 43.7191 34.2051 42.9994C34.1952 42.5873 34.1728 42.1758 34.1964 41.7627C34.2054 41.6037 34.2724 41.4563 34.2676 41.2963C34.266 41.2398 34.3138 41.1938 34.3518 41.1687C34.89 40.8093 35.2151 40.2772 35.5491 39.7463C35.8381 39.2866 36.1105 38.8177 36.3431 38.3293C36.5186 37.9614 36.7173 37.594 36.7524 37.1749C36.7572 37.1184 36.88 37.0502 36.7623 37.0089C36.6758 36.9787 36.6567 37.0911 36.6267 37.1451C36.2822 37.7636 35.9864 38.4081 35.6011 39.0047C35.2495 39.5488 34.8645 40.067 34.3655 40.4823C34.11 40.695 33.8079 40.8534 33.4455 40.8375C33.1568 40.8245 32.8952 40.7299 32.6722 40.5635C32.2469 40.2457 31.9751 39.8095 31.7694 39.326C31.6264 38.9897 31.4953 38.6494 31.4082 38.2963C31.318 37.9296 31.2395 37.5604 31.1862 37.1838C31.145 36.8921 31.1495 36.5968 31.0895 36.306C31.0548 36.1377 31.1157 35.9564 31.2752 35.8386C31.5451 35.6395 31.8415 35.4976 32.1783 35.4713C32.3557 35.4576 32.395 35.516 32.3988 35.7224C32.402 35.9075 32.4013 36.0926 32.3969 36.2774C32.3883 36.6212 32.3841 36.9676 32.4275 37.307C32.4894 37.7925 32.572 38.2722 32.8432 38.7075C33.0008 38.9605 33.507 39.0799 33.7597 39.025C34.2551 38.9173 34.607 38.5986 34.9551 38.2735C35.3529 37.902 35.7169 37.4978 36.0649 37.0797C36.5332 36.5174 36.9763 35.9361 37.4096 35.3468C37.7034 34.9471 37.9733 34.5321 38.2129 34.1C38.313 33.919 38.4017 33.7251 38.4926 33.5368C38.647 33.218 38.8072 32.9015 38.9466 32.576C39.0835 32.257 39.2133 31.9347 39.3409 31.6112C39.4701 31.2832 39.591 30.9524 39.7113 30.6212C39.7626 30.4799 39.8111 30.338 39.8567 30.1948C39.8992 30.0612 39.9598 30.0863 40.022 30.1755C40.119 30.3139 40.1857 30.4685 40.186 30.6374C40.1876 31.3721 40.2523 32.1042 40.2772 32.838C40.3021 33.566 40.3541 34.294 40.4042 35.0211C40.4393 35.5303 40.476 36.0405 40.5311 36.5476C40.5819 37.0121 40.6125 37.4794 40.6884 37.942C40.719 38.1284 40.7047 38.3217 40.7108 38.5119C40.7114 38.9123 40.7127 39.3126 40.7123 39.713C40.7123 40.3083 40.7108 40.9039 40.7098 41.4992L40.7104 41.5002ZM37.5787 44.5106C37.6664 44.4195 37.6348 44.3046 37.6415 44.1969C37.6571 44.1528 37.6791 44.11 37.6871 44.0646C37.7547 43.6886 37.8304 43.3137 37.8836 42.9359C37.9612 42.386 38.0559 41.8386 38.1379 41.2897C38.1998 40.8744 38.2671 40.4597 38.3283 40.0448C38.4234 39.4003 38.5322 38.758 38.6107 38.1106C38.6317 37.9357 38.6394 37.7563 38.6773 37.5848C38.7565 37.2261 38.7711 36.8587 38.8391 36.4984C38.8898 36.2298 38.8755 35.9488 38.9319 35.6821C38.9737 35.4856 38.9858 35.2862 39.0104 35.0903C39.0503 34.7725 39.1185 34.4556 39.1083 34.1327C39.1074 34.1016 39.1201 34.0521 39.0665 34.0441C39.0181 34.0368 38.998 34.0648 38.975 34.1079C38.879 34.2902 38.833 34.4883 38.7995 34.6861C38.7073 35.2287 38.6183 35.7723 38.5494 36.318C38.4907 36.7822 38.4279 37.2451 38.3558 37.7074C38.2786 38.2011 38.2215 38.698 38.1398 39.191C38.1149 39.3422 38.1069 39.4965 38.0731 39.6438C37.9717 40.0867 37.9292 40.5394 37.8367 40.9836C37.78 41.2557 37.7503 41.5335 37.6938 41.8059C37.5997 42.259 37.4842 42.7076 37.3959 43.1613C37.2778 43.7671 37.0864 44.3541 36.9438 44.9535C36.8746 45.2444 36.7904 45.5371 36.7004 45.8257C36.5466 46.3178 36.4056 46.8144 36.2487 47.3062C36.0467 47.9386 35.8075 48.5539 35.5229 49.1552C35.2734 49.6817 34.9768 50.1728 34.6108 50.6249C34.5368 50.7164 34.473 50.8157 34.406 50.9123C34.3786 50.9519 34.3815 51.0021 34.4121 51.0294C34.4437 51.0577 34.4791 51.0415 34.5183 51.0075C34.5627 50.9691 34.6137 50.9373 34.6574 50.8948C35.2702 50.2989 35.7418 49.5982 36.1565 48.8597C36.3973 48.431 36.5932 47.9802 36.7632 47.5167C36.8641 47.2417 36.97 46.9674 37.0497 46.6867C37.1343 46.3899 37.2319 46.0962 37.288 45.7895C37.3282 45.5707 37.3553 45.3441 37.4479 45.1358C37.5161 45.0447 37.519 44.9396 37.5133 44.8323L37.5139 44.8288C37.5956 44.7367 37.5767 44.6243 37.5774 44.516L37.578 44.5106H37.5787Z" fill="white"/>
<path d="M44.3459 42.7047C44.2965 43.107 44.2461 43.5089 44.1644 43.9067C44.129 44.0801 44.1249 44.2592 44.1006 44.4354C44.0202 45.0211 43.9909 45.6123 44.0534 46.201C44.0856 46.5067 44.0674 46.8121 44.093 47.1166C44.0729 47.8583 44.1711 48.5999 44.0936 49.3413C44.1012 49.4362 44.0406 49.5105 44.0014 49.5851C43.9647 49.655 43.8773 49.6956 43.788 49.682C43.5851 49.6512 43.4629 49.3794 43.5535 49.1914C43.6128 49.0682 43.6757 48.9374 43.6904 48.8047C43.7165 48.5663 43.5768 48.3955 43.3873 48.2701C43.2543 48.1821 43.1267 48.0942 43.0581 47.9443C43.068 47.8897 43.0574 47.8434 43.0038 47.8151C43.0026 47.7941 43.0013 47.7735 43 47.7525C43.0041 47.1547 43.0057 46.5572 42.9419 45.9616C42.9349 45.8968 42.9174 45.8616 42.8459 45.8911C42.7359 45.8622 42.7422 45.9355 42.7445 46.0054C42.7343 46.0174 42.7161 46.0289 42.7154 46.0413C42.6893 46.5683 42.6689 47.0957 42.6813 47.6236C42.6756 47.8138 42.674 48.0043 42.6634 48.1942C42.6536 48.3761 42.5355 48.4469 42.3699 48.3704C41.9922 48.1958 41.6356 47.983 41.3443 47.6856C41.129 47.4659 40.9124 47.2392 40.8677 46.9064C40.8396 46.6982 40.9133 46.5153 40.9816 46.3327C41.1156 45.9755 41.246 45.6199 41.1436 45.2316C41.122 45.1491 41.098 45.0624 41.0636 44.9856C40.8479 44.5036 40.7841 43.9972 40.8476 43.4823C40.8836 43.1911 41.0081 42.9184 41.1743 42.6673C41.2965 42.4828 41.3721 42.2755 41.336 42.0478C41.2843 41.7202 41.4231 41.4401 41.5644 41.1671C41.6486 41.0045 41.6879 40.8286 41.7022 40.6616C41.715 40.5137 41.6423 40.3476 41.573 40.206C41.4473 39.9492 41.4384 39.7019 41.5134 39.4263C41.6008 39.1043 41.7217 38.7938 41.8027 38.4693C41.9303 37.9591 42.0867 37.4556 42.2478 36.9546C42.2883 36.8285 42.3473 36.7019 42.4175 36.5825C42.4558 36.5174 42.4931 36.5107 42.5524 36.5098C42.622 36.5088 42.6114 36.5634 42.6325 36.6031C42.6826 36.6974 42.6765 36.7958 42.6768 36.8955C42.68 37.7207 42.6835 38.5455 42.687 39.3707C42.6855 39.418 42.6819 39.4653 42.6823 39.5126C42.6858 40.7702 42.6893 42.0278 42.6931 43.2851C42.6934 43.3908 42.6778 43.5524 42.7914 43.5578C42.9448 43.5654 42.9333 43.401 42.9343 43.2826C42.9384 42.7438 42.9521 42.2047 42.9416 41.6659C42.9327 41.2182 42.9872 40.7747 42.9927 40.328C43.0045 39.3948 42.9812 38.4608 43.0456 37.5283C43.0644 37.2549 43.0613 36.9803 43.0683 36.7063C43.1952 36.678 43.3228 36.7041 43.4501 36.7022L43.4527 36.7028C43.6409 36.7901 43.8288 36.8774 44.017 36.9651C44.1175 37.0444 44.1239 37.1778 44.1322 37.2749C44.1491 37.4794 44.1922 37.6788 44.2135 37.882C44.2665 38.3909 44.3341 38.8986 44.396 39.4066C44.3973 39.4171 44.3982 39.4275 44.3989 39.438C44.4378 40.206 44.5179 40.9741 44.4589 41.7433C44.4416 41.9672 44.3954 42.1897 44.4027 42.4164C44.3108 42.4987 44.351 42.606 44.3469 42.705L44.3459 42.7047Z" fill="white"/>
<path d="M38.4088 28.959C38.263 29.1933 38.1533 29.4489 38.04 29.6969C37.7749 30.2782 37.4476 30.8211 37.1231 31.3691C36.7997 31.9155 36.3313 32.3016 35.8289 32.6673C35.4789 32.9223 35.1236 33.1702 34.7749 33.4268C34.6533 33.516 34.5225 33.5932 34.4016 33.6836C34.3081 33.7535 34.266 33.7005 34.2699 33.6224C34.281 33.4027 34.1876 33.1969 34.1962 32.9798C34.201 32.8607 34.1317 32.7585 34.1285 32.6423C34.1046 32.3787 34.1104 32.1159 34.1397 31.853C34.1697 31.586 34.2507 31.5352 34.4913 31.6402C34.5232 31.6542 34.5471 31.6863 34.5866 31.6885C34.6377 31.6914 34.7037 31.7222 34.7299 31.6628C34.7509 31.6152 34.7101 31.5758 34.6667 31.5374C34.4715 31.365 34.2581 31.2094 34.133 30.9691C34.095 30.8964 34.0379 30.8967 34.0016 30.9872C33.8625 31.3348 33.8303 31.7003 33.8118 32.0685C33.7448 32.3162 33.7049 32.5702 33.5894 32.8051C33.428 33.1334 33.1846 33.3969 32.9424 33.6636C32.706 33.924 32.4646 34.178 32.2578 34.4669C32.0061 34.819 31.6313 35.027 31.2312 35.1819C30.6857 35.393 30.1443 35.6092 29.6534 35.9359C29.5136 36.029 29.4179 36.1598 29.305 36.2737C29.1107 36.47 28.8814 36.5576 28.6159 36.5928C28.2239 36.6449 27.8222 36.6547 27.4544 36.8278C27.4222 36.843 27.3941 36.8598 27.3644 36.8805C27.2598 36.9535 27.1481 37.0034 27.018 36.917C26.9787 36.891 26.9149 36.9021 26.8623 36.896C26.8282 36.7821 26.7784 36.6954 26.6364 36.7652C26.6275 36.7697 26.616 36.7684 26.6058 36.77L26.6042 36.769C26.5656 36.696 26.5509 36.6265 26.6428 36.5811C26.6741 36.5655 26.6664 36.5395 26.6696 36.5157L26.6706 36.515C26.7181 36.522 26.7424 36.5043 26.736 36.4538C26.7695 36.4554 26.7851 36.4354 26.81 36.4134C26.9708 36.2728 27.1143 36.1071 27.3112 36.0156C27.367 35.9896 27.4362 35.9655 27.4155 35.9147C27.3871 35.8461 27.3086 35.8797 27.2521 35.9023C27.0151 35.9969 26.7787 36.0934 26.542 36.1893C26.4718 36.1175 26.4948 36.0515 26.5723 36.0156C26.7982 35.9118 26.9979 35.7569 27.2384 35.6826C27.2458 35.6804 27.2464 35.6562 27.2502 35.6426C27.4384 35.6283 27.6193 35.5876 27.7875 35.4994C27.8605 35.4981 27.9336 35.4968 28.0066 35.4956C28.0966 35.5045 28.1712 35.5216 28.2162 35.6229C28.2401 35.6762 28.2379 35.7467 28.2928 35.7864C28.2947 35.7959 28.2972 35.8054 28.3001 35.8147C28.2918 35.8851 28.3208 35.9286 28.3933 35.9397C28.5802 36.0785 28.9187 36.0734 29.0769 35.9185C29.1181 35.8782 29.1895 35.8331 29.1576 35.7499C29.1576 35.627 29.0657 35.6877 29.0204 35.6921C28.8195 35.7115 28.6073 35.707 28.4883 35.5372C28.311 35.2844 28.0637 35.1622 27.7913 35.0654C27.7406 35.0473 27.679 35.0501 27.6997 34.9723C27.7185 34.9015 27.783 34.9244 27.8315 34.919C27.9935 34.9006 28.147 34.9603 28.2953 35.0016C28.4657 35.0485 28.6612 35.0174 28.8067 35.1251C29.0661 35.3171 29.268 35.2108 29.468 35.0339C29.4827 35.0209 29.4961 35.0057 29.5121 34.9939C29.9663 34.665 30.4072 34.3221 30.7514 33.8719C30.9049 33.6713 31.0558 33.4614 31.2836 33.3388C31.5369 33.2023 31.6587 32.9725 31.779 32.7327C31.9184 32.4546 32.0674 32.193 32.3347 31.9962C32.5647 31.8269 32.7762 31.6177 32.9223 31.3599C33.0496 31.1904 33.197 31.0322 33.3001 30.8491C33.4943 30.5046 33.7212 30.1887 34.0035 29.9115C34.0651 29.9286 34.0794 29.8651 34.1132 29.841C34.3464 29.674 34.513 29.3854 34.8671 29.4483C34.8709 29.4489 34.8757 29.4432 34.8805 29.4413C35.0227 29.3886 35.1392 29.3067 35.2352 29.1844C35.3446 29.0451 35.471 28.9193 35.6652 28.8971C35.9651 28.8628 36.147 28.6679 36.2723 28.4193C36.4133 28.1402 36.2098 27.9221 36.1138 27.6865C36.0981 27.6116 36.0449 27.5478 36.0484 27.4668C36.0452 27.2839 36.042 27.101 36.0391 26.9182C36.0385 26.8705 36.0391 26.8223 35.9859 26.7978C35.9804 26.7458 35.9919 26.6835 35.967 26.6435C35.8627 26.4778 35.9042 26.307 35.9444 26.1403C35.9591 26.0797 35.9852 26.0206 35.9827 25.9577C35.9686 25.6288 36.1671 25.4567 36.4385 25.3348C36.6306 25.2485 36.8616 25.2158 36.949 24.9795C36.9509 24.9741 36.9671 24.9738 36.9866 24.9688C36.9975 25.0535 37.0603 25.1069 37.1286 25.1351C37.2645 25.1916 37.4071 25.2332 37.5484 25.2754C37.6505 25.3059 37.7306 25.3437 37.7759 25.4574C37.8419 25.6231 37.8553 25.8088 37.9644 25.9577C37.9979 26.0035 38.0467 26.0358 37.9781 26.0997C37.9255 26.1482 37.8913 26.1679 37.8173 26.1378C37.5519 26.0295 37.075 26.18 37.0788 26.6311C37.0801 26.7823 37.1193 26.9267 37.1161 27.0788C37.1113 27.3084 37.0654 27.3515 36.8552 27.2645C36.8223 27.2509 36.7796 27.2309 36.7617 27.2792C36.747 27.3185 36.7748 27.3646 36.8121 27.363C36.9024 27.3588 36.9758 27.4585 37.0794 27.3903C37.1244 27.3604 37.2013 27.3582 37.2587 27.4033C37.3085 27.4423 37.3452 27.4366 37.3908 27.3846C37.4342 27.335 37.4345 27.3061 37.4195 27.2388C37.3745 27.0404 37.2638 26.8613 37.2485 26.6559C37.2393 26.5327 37.3327 26.4686 37.445 26.5254C37.4986 26.5524 37.5628 26.5645 37.5934 26.5349C37.7296 26.4035 37.8636 26.5159 37.9468 26.5724C38.0965 26.6734 38.1542 26.7613 38.0298 26.9594C37.9756 27.0458 37.9539 27.1401 37.9539 27.2411C37.9539 27.3192 37.9408 27.3925 37.9159 27.47C37.8483 27.6814 37.7487 27.8881 37.7727 28.1205C37.7794 28.185 37.7542 28.2443 37.7073 28.2891C37.6632 28.331 37.6049 28.3624 37.5844 28.2732C37.5583 28.1586 37.5213 28.245 37.4859 28.2608C37.4479 28.2777 37.4533 28.3145 37.4533 28.3424C37.4536 28.4475 37.3481 28.5059 37.342 28.6126C37.3398 28.6555 37.261 28.6444 37.216 28.6472C37.1503 28.6517 37.1346 28.6056 37.1155 28.551C37.1024 28.5136 37.0951 28.4459 37.0383 28.4466C36.9754 28.4475 37.0109 28.5136 36.9924 28.5463C36.9566 28.6088 36.9215 28.6783 36.8475 28.6996C36.6992 28.7422 36.7368 28.8158 36.8111 28.8923C36.8938 28.9774 36.9898 29.0447 37.0989 29.0965C37.3059 29.1949 37.4013 29.1847 37.5443 29.0168C37.623 28.9241 37.7069 28.8612 37.8355 28.8923C37.9564 28.9409 38.0441 28.838 38.1513 28.8234C38.2381 28.8228 38.3255 28.8057 38.412 28.8279L38.4133 28.8295C38.412 28.8727 38.4107 28.9158 38.4094 28.959H38.4088ZM36.867 26.4648C36.7292 26.2079 36.5208 26.1292 36.2529 26.1574C36.1195 26.1714 36.095 26.2749 36.0688 26.3625C36.0497 26.427 36.1285 26.4581 36.1872 26.4772C36.4133 26.5511 36.6379 26.5337 36.867 26.4648ZM35.2355 32.5559C35.2349 32.5222 35.2039 32.521 35.1851 32.5048C35.0645 32.4016 34.8999 32.4025 34.7669 32.3283C34.7382 32.3124 34.6788 32.2848 34.6549 32.3349C34.6335 32.38 34.6536 32.4276 34.7056 32.4518C34.8345 32.5114 34.9612 32.5762 35.0929 32.6289C35.1558 32.654 35.202 32.6076 35.2352 32.5556L35.2355 32.5559ZM28.064 36.242C28.0739 36.242 28.1301 36.2668 28.1751 36.2264C28.2149 36.1902 28.2925 36.1598 28.2535 36.0934C28.2232 36.0417 28.1687 35.9851 28.0883 36.0169C28.0302 36.0398 27.9645 36.0556 27.9195 36.0944C27.8908 36.1191 27.8146 36.128 27.8407 36.1906C27.8592 36.2347 27.9048 36.2579 27.9594 36.2477C27.9801 36.2439 28.0015 36.2452 28.064 36.242ZM36.622 27.6684C36.8781 27.6836 37.1334 27.7144 37.3863 27.656C37.1302 27.5233 36.8746 27.5284 36.622 27.6684ZM37.224 27.9199C37.134 27.8275 36.9238 27.783 36.8344 27.8338C36.8092 27.8481 36.7802 27.8722 36.7895 27.9081C36.7965 27.9357 36.8223 27.9516 36.8504 27.9481C36.9716 27.9335 37.0973 27.9621 37.2236 27.9199H37.224Z" fill="white"/>
<path d="M32.9805 34.7345C33.0041 34.4275 33.1314 34.1618 33.2714 33.8897C33.4003 33.6401 33.5876 33.4464 33.7544 33.2321C33.8179 33.1505 33.8661 33.1407 33.9168 33.2547C34.0313 33.5115 33.9547 33.9509 33.749 34.1373C33.5742 34.2954 33.3933 34.4481 33.3295 34.6894C33.2781 34.8831 33.333 35.0628 33.4226 35.2292C33.4692 35.3162 33.5068 35.2441 33.5314 35.1955C33.6003 35.0587 33.6469 34.9152 33.6274 34.7609C33.6038 34.5739 33.6715 34.4624 33.8558 34.3938C34.2106 34.2621 34.4872 34.0046 34.788 33.7862C35.4002 33.341 35.9929 32.8718 36.579 32.393C36.9273 32.1085 37.158 31.7399 37.3854 31.3669C37.7791 30.7217 38.1766 30.0788 38.5543 29.4238C38.6076 29.3317 38.6775 29.2431 38.7362 29.1511C38.8258 29.0104 38.9231 28.9806 39.081 29.0631C39.3059 29.1809 39.4728 29.3803 39.4169 29.5457C39.3324 29.7969 39.2546 30.0509 39.142 30.2921C39.0217 30.55 38.9142 30.8144 38.7859 31.0681C38.6306 31.3754 38.4755 31.6831 38.2946 31.9784C38.1249 32.2555 37.96 32.5349 37.7836 32.808C37.3979 33.4052 36.9599 33.9614 36.4759 34.4805C36.0832 34.9015 35.6739 35.3066 35.2171 35.6616C34.8946 35.9124 34.5558 36.1337 34.179 36.2947C33.7802 36.4649 33.4654 36.3398 33.2376 36.002C33.0765 35.7632 32.9999 35.4981 32.9808 35.2143C32.9808 35.0546 32.9808 34.8945 32.9808 34.7348L32.9805 34.7345Z" fill="white"/>
<path d="M32.6058 36.2562C32.6125 36.0575 32.5892 35.8419 32.6422 35.6273C32.6552 35.5749 32.6824 35.5613 32.7127 35.5441C32.7589 35.5178 32.7793 35.5657 32.7962 35.593C32.8763 35.7229 32.8833 35.8765 32.9296 36.0178C33.0282 36.3185 33.1172 36.6226 33.417 36.7988C33.6499 36.9357 33.893 36.9233 34.1428 36.8592C34.6098 36.7395 34.9994 36.4756 35.3643 36.1813C35.7727 35.8521 36.1488 35.4847 36.4968 35.0917C36.8953 34.6418 37.2637 34.169 37.5946 33.6665C37.8622 33.2594 38.0977 32.8362 38.3296 32.4082C38.5621 31.9793 38.7784 31.5424 39.0027 31.1097C39.1418 30.8414 39.2397 30.5518 39.3769 30.2823C39.4516 30.1359 39.4854 29.9772 39.5562 29.8308C39.5811 29.7797 39.6248 29.7333 39.6647 29.7464C39.709 29.7606 39.7549 29.8022 39.7473 29.8781C39.7275 30.0654 39.6557 30.2378 39.6031 30.4147C39.5367 30.6372 39.4468 30.8535 39.359 31.0697C39.2318 31.3843 39.1102 31.7024 38.9635 32.0082C38.7213 32.512 38.5012 33.0273 38.2189 33.5112C37.9104 34.0398 37.5764 34.5526 37.2175 35.0485C36.9441 35.4263 36.6704 35.8048 36.367 36.16C36.136 36.4309 35.9076 36.7046 35.6642 36.9643C35.238 37.4192 34.7952 37.858 34.2656 38.1977C34.0803 38.3168 33.8863 38.4165 33.6703 38.4695C33.3995 38.5359 33.0572 38.3412 32.9283 38.0368C32.7832 37.6935 32.6865 37.3395 32.6501 36.9646C32.6278 36.7338 32.6064 36.5042 32.6055 36.2566L32.6058 36.2562Z" fill="white"/>
<path d="M40.5223 31.7795C40.5223 31.5966 40.5207 31.4382 40.5235 31.2801C40.5242 31.2489 40.4971 31.2013 40.5535 31.188C40.603 31.1762 40.6189 31.2089 40.6473 31.2461C40.974 31.6725 41.2314 32.15 41.5989 32.5456C41.8312 32.7958 42.0797 33.0313 42.3279 33.266C42.4131 33.3463 42.451 33.4038 42.3735 33.5174C41.9725 34.1054 41.992 34.7725 42.0692 35.4303C42.1087 35.7672 42.0666 36.0752 41.998 36.3971C41.9355 36.6898 41.8436 36.974 41.7801 37.2661C41.7211 37.5369 41.6318 37.8007 41.5597 38.0687C41.486 38.3424 41.4088 38.6157 41.3501 38.8926C41.3313 38.9805 41.2777 39.0548 41.2745 39.1472C41.2729 39.1942 41.2254 39.2326 41.1801 39.2307C41.1386 39.2288 41.145 39.1752 41.137 39.1412C41.049 38.7612 41.0435 38.3725 41.0072 37.9868C40.9804 37.7036 40.974 37.4197 40.9456 37.1378C40.893 36.6108 40.8623 36.0818 40.8119 35.5554C40.7513 34.9182 40.7098 34.2791 40.632 33.6438C40.5838 33.2504 40.5905 32.8542 40.5548 32.4621C40.5334 32.2255 40.5302 31.9909 40.5219 31.7798L40.5223 31.7795Z" fill="white"/>
<path d="M44.8337 36.385C44.5105 36.4142 44.2422 36.2697 43.9672 36.1494C43.5152 35.9519 43.0765 35.7249 42.6133 35.5506C42.4478 35.4884 42.3948 35.316 42.3709 35.1591C42.3023 34.7089 42.4028 34.286 42.6267 33.8927C42.7291 33.7126 42.8465 33.6964 43.0086 33.8431C43.3605 34.1622 43.638 34.5499 43.9682 34.8883C44.2499 35.1772 44.5182 35.482 44.8579 35.7106C44.9683 35.7849 45.065 35.784 45.1712 35.7113C45.4535 35.5179 45.7808 35.476 46.1097 35.4382C46.179 35.4303 46.2294 35.4522 46.2504 35.5103C46.2747 35.5766 46.2268 35.6128 46.1694 35.6405C46.105 35.6713 46.0475 35.7179 45.9812 35.743C45.7978 35.8119 45.6523 35.9037 45.5256 36.0745C45.3671 36.2881 45.1211 36.4205 44.8337 36.3853V36.385Z" fill="white"/>
<path d="M36.5539 24.0605C36.9271 24.0691 36.8688 24.0323 36.8739 24.4015C36.8761 24.5517 36.826 24.6901 36.803 24.8336C36.7785 24.9867 36.6203 25.0054 36.5016 25.0137C36.374 25.0226 36.2614 25.0727 36.1424 25.1007C35.9924 25.1359 35.9669 25.2972 35.9238 25.4197C35.8872 25.5245 35.8699 25.6296 35.7927 25.7217C35.6093 25.9401 35.6316 26.1862 35.7056 26.4449C35.7736 26.684 35.8355 26.9313 35.6855 27.1701C35.6374 27.2469 35.6511 27.3384 35.682 27.4152C35.7382 27.5555 35.7359 27.686 35.6734 27.8228C35.5914 28.0025 35.5433 28.1829 35.5793 28.3908C35.6115 28.5753 35.4022 28.8026 35.2159 28.8426C35.1024 28.8668 35.0092 28.9109 34.9566 29.0325C34.895 29.1744 34.7438 29.1989 34.6286 29.0963C34.5358 29.0138 34.4535 28.9217 34.315 29.0201C34.2892 29.0385 34.2426 29.0296 34.2053 29.0293C34.1543 29.029 34.0815 29.0538 34.0617 28.9969C34.0413 28.9392 34.1259 28.935 34.1558 28.8988C34.3023 28.722 34.4886 28.595 34.6774 28.4667C34.8449 28.3527 34.8535 28.1457 34.8877 27.9683C34.91 27.8533 34.9652 27.7752 35.051 27.7222C35.1595 27.6549 35.2392 27.572 35.251 27.4473C35.2813 27.1269 35.4211 26.8199 35.3014 26.4808C35.2188 26.2465 35.2791 25.9915 35.4192 25.7814C35.5308 25.6137 35.5346 25.4223 35.5876 25.2423C35.6418 25.0584 35.7008 24.8781 35.802 24.7152C35.8304 24.6695 35.8249 24.626 35.831 24.5806C35.8549 24.5723 35.8875 24.5711 35.9009 24.5546C35.9296 24.5187 35.8635 24.4603 35.9398 24.4234C36.1542 24.3199 36.2968 24.0948 36.5536 24.0605H36.5539Z" fill="white"/>
<path d="M39.8852 29.2233C39.8906 29.2233 39.8973 29.2214 39.9008 29.224C40.1774 29.4062 40.5602 29.3589 40.7877 29.6685C40.9504 29.8898 41.108 30.1114 41.204 30.3647C41.3559 30.7654 41.6047 31.1102 41.8203 31.4731C42.0698 31.8931 42.347 32.2967 42.6147 32.7059C42.7321 32.8856 42.8536 33.0622 42.9921 33.2273C43.0125 33.2514 43.0923 33.3054 43.0096 33.3657C42.9465 33.4117 42.9127 33.3863 42.8639 33.3416C42.5621 33.0637 42.3091 32.7415 42.0484 32.4288C41.4519 31.7128 40.9115 30.9543 40.3749 30.193C40.1902 29.931 39.9997 29.6739 39.8424 29.3948C39.7889 29.2999 39.8096 29.2275 39.8855 29.2237L39.8852 29.2233Z" fill="white"/>
<path d="M39.0501 28.2575C39.0696 28.1854 39.0087 28.1832 38.9678 28.1632C38.8906 28.0407 38.7407 28.0334 38.6351 27.9553C38.4281 27.7714 38.3946 27.5644 38.519 27.3139C38.5971 27.1568 38.533 27.005 38.4341 26.8659C38.2861 26.6573 38.2896 26.5037 38.4325 26.2871C38.4437 26.2703 38.4612 26.2541 38.4644 26.2357C38.4769 26.1608 38.4848 26.089 38.5908 26.0919C38.6954 26.0944 38.6979 26.2014 38.6976 26.2395C38.6951 26.5002 38.8051 26.7313 38.86 26.9764C38.889 27.106 38.8571 27.2491 38.852 27.386C38.8479 27.4993 38.8945 27.5644 39.0157 27.5609C39.1921 27.6479 39.3152 27.7759 39.3784 27.9689C39.4125 28.0734 39.4961 28.1546 39.5998 28.2118C39.7357 28.2867 39.8228 28.4099 39.8608 28.5553C39.8959 28.6893 39.9836 28.7344 40.1032 28.7537C40.1396 28.7595 40.1779 28.761 40.212 28.7734C40.3096 28.8087 40.4095 28.9652 40.3709 29.0354C40.3099 29.1465 40.1897 29.1151 40.1201 29.076C39.9935 29.0052 39.8665 29.015 39.7392 29.0265C39.5931 29.0395 39.4757 29.003 39.3889 28.8865C39.3245 28.8001 39.2406 28.735 39.1519 28.6804C39.0275 28.6039 39.023 28.4982 39.0709 28.3861C39.0954 28.3286 39.1108 28.2918 39.0498 28.2569L39.0501 28.2575Z" fill="white"/>
<path d="M40.1879 52.1607C40.17 52.3204 40.0498 52.4267 39.9687 52.5509C39.8539 52.7268 39.7177 52.8896 39.5833 53.0525C39.5527 53.0896 39.473 53.1354 39.4506 53.1217C39.3907 53.0846 39.3157 53.0541 39.2953 52.9658C39.2659 52.8379 39.2503 52.7087 39.2289 52.5801C39.1425 52.0626 39.1747 51.5415 39.1648 51.0221C39.1635 50.9593 39.131 50.8691 39.2232 50.8351C39.3262 50.7973 39.375 50.8875 39.399 50.9504C39.5492 51.3418 39.8618 51.6187 40.096 51.9505C40.141 52.014 40.1965 52.073 40.1876 52.1613L40.1879 52.1607Z" fill="white"/>
<path d="M38.5964 25.7135C38.4918 25.797 38.4175 25.7367 38.3738 25.6494C38.2768 25.4551 38.1007 25.3265 37.9763 25.1541C37.8914 25.0369 37.7246 25.0258 37.5848 25.0287C37.4623 25.0312 37.3606 24.9814 37.2604 24.9385C37.1436 24.8887 37.0645 24.7861 37.0664 24.6442C37.069 24.4543 37.0706 24.2645 37.0725 24.0746V24.074C37.1229 24.081 37.1411 24.0546 37.1405 24.0089C37.2004 24.006 37.2604 24.0029 37.3204 24C37.5124 24.0467 37.699 24.1 37.8522 24.2378C37.9434 24.32 38.05 24.3858 38.1495 24.4591C38.2503 24.6163 38.3167 24.7909 38.369 24.9665C38.4436 25.216 38.6535 25.4255 38.5955 25.7141L38.5964 25.7135Z" fill="white"/>
<path d="M39.6133 50.0996C39.6289 49.7844 39.8181 49.5437 39.9677 49.2862C40.0232 49.1903 40.0771 49.0935 40.1346 48.9986C40.1566 48.9624 40.1661 48.8932 40.2283 48.9202C40.281 48.943 40.3209 48.9776 40.3231 49.0586C40.3311 49.3323 40.272 49.6005 40.2727 49.873C40.2736 50.2689 40.2724 50.6648 40.2733 51.0607C40.2733 51.1128 40.2679 51.1725 40.2902 51.2153C40.3346 51.3004 40.3247 51.3804 40.2535 51.4226C40.1652 51.4747 40.1199 51.3801 40.073 51.3261C39.8653 51.0874 39.7147 50.8159 39.6155 50.5162C39.6149 50.3771 39.6142 50.2384 39.6133 50.0993V50.0996Z" fill="white"/>
<path d="M32.7301 31.243C32.6198 31.322 32.5646 31.4481 32.4727 31.5427C32.4485 31.5706 32.362 31.5116 32.3843 31.6052C32.385 31.5976 32.3831 31.5906 32.3789 31.5843C32.5027 31.25 32.6632 30.9328 32.8338 30.6207C32.8597 30.5737 32.8514 30.5312 32.8613 30.487C32.9895 30.4283 33.0026 30.2937 33.0514 30.1873C33.2214 29.8193 33.4763 29.5387 33.8537 29.3774C33.9852 29.3212 34.1345 29.3666 34.2684 29.3139C34.2901 29.3053 34.3224 29.312 34.3259 29.3488C34.3291 29.3812 34.3048 29.3853 34.2828 29.4009C34.1179 29.5177 33.9325 29.6107 33.8129 29.7828C33.7883 29.7879 33.7708 29.7955 33.7494 29.8165C33.3277 30.2343 33.0776 30.7728 32.7301 31.2427V31.243Z" fill="white"/>
<path d="M47.3379 36.9515C47.3172 36.9531 47.2968 36.9547 47.276 36.9566C47.2658 36.9566 47.2556 36.9566 47.2454 36.9566C47.2234 36.9566 47.2014 36.9566 47.1794 36.9566C47.0818 36.9464 47.062 37.0274 47.0243 37.0877L47.0231 37.0884C46.9733 37.0966 46.905 37.0626 46.8875 37.1461C46.6929 37.182 46.5359 37.0712 46.3659 37.0122C46.3021 36.9899 46.3136 36.9296 46.3129 36.8795C46.312 36.8328 46.3333 36.7887 46.3812 36.7883C46.6087 36.7883 46.6323 36.5807 46.734 36.4531C46.8856 36.4413 46.8281 36.2876 46.8948 36.2188C47.1188 36.2289 47.2716 36.38 47.4381 36.4981C47.5048 36.5455 47.5172 36.6442 47.456 36.7052C47.3973 36.7636 47.4021 36.8242 47.4001 36.8906C47.3692 36.9004 47.3245 36.8963 47.3376 36.9512L47.3379 36.9515Z" fill="white"/>
<path d="M40.0048 53.534C39.8227 53.5125 39.7904 53.4556 39.8603 53.2829C39.8699 53.2591 39.867 53.2289 39.8801 53.208C39.926 53.135 39.9372 53.0261 40.0546 53.0216C40.1707 53.0175 40.202 53.1165 40.2151 53.1934C40.2304 53.2829 40.3085 53.2918 40.3538 53.3347C40.4234 53.4004 40.4314 53.4509 40.379 53.5213C40.2543 53.5255 40.1292 53.5296 40.0045 53.534H40.0048Z" fill="white"/>
<path d="M45.9767 36.5876C45.9397 36.5848 45.8922 36.5794 45.8446 36.5775C45.8013 36.5756 45.7642 36.5616 45.7894 36.5136C45.8105 36.474 45.7432 36.3949 45.8395 36.3933C45.9461 36.3914 46.0581 36.3527 46.155 36.4371C46.1799 36.4587 46.2447 36.4543 46.2319 36.4962C46.2211 36.5314 46.1914 36.5803 46.1305 36.5775C46.0833 36.5752 46.0354 36.5835 45.977 36.5879L45.9767 36.5876Z" fill="white"/>
<path d="M37.3402 26.3969C37.3784 26.2293 37.5112 26.2969 37.6085 26.2956C37.656 26.295 37.7479 26.2674 37.7396 26.3572C37.7322 26.4388 37.6512 26.4128 37.5973 26.4026C37.5134 26.3871 37.4301 26.4334 37.3398 26.3966L37.3402 26.3969Z" fill="white"/>
<path d="M36.4388 26.4019C36.4337 26.4019 36.428 26.4035 36.4232 26.4019C36.3674 26.3816 36.2851 26.4626 36.2522 26.3626C36.242 26.3314 36.2682 26.3003 36.3055 26.2997C36.4057 26.2981 36.5164 26.247 36.598 26.3464C36.6239 26.3778 36.606 26.4051 36.5639 26.4067C36.5224 26.4083 36.4806 26.407 36.4388 26.407C36.4388 26.4054 36.4388 26.4038 36.4388 26.4023V26.4019Z" fill="white"/>
</svg>
