<svg width="80" height="80" viewBox="0 0 80 80" fill="none" xmlns="http://www.w3.org/2000/svg">
<path d="M39.6971 40.2279C49.4536 40.2279 57.363 32.3187 57.363 22.5622C57.363 12.8057 49.4536 4.89648 39.6971 4.89648C29.9406 4.89648 22.0312 12.8057 22.0312 22.5622C22.0312 32.3187 29.9406 40.2279 39.6971 40.2279Z" fill="#E0E594" stroke="#0F511A" stroke-width="3" stroke-miterlimit="10"/>
<path d="M77.4155 59.7274V78.2764H1.94336V59.7274C13.8187 55.8672 26.5118 53.7734 39.663 53.7734C52.8141 53.7734 65.5075 55.8672 77.4155 59.7274Z" fill="#E0E594" stroke="#0F511A" stroke-width="3" stroke-miterlimit="10"/>
<path d="M39.6973 30.1191V33.7831" stroke="#4E871C" stroke-width="3" stroke-miterlimit="10"/>
<path d="M39.6966 28.1583V24.8869C41.365 23.2184 43.0008 21.5827 44.6693 19.9143C44.8001 19.2273 44.7674 18.573 44.6693 17.886C44.2767 16.054 42.8698 14.5492 41.0378 14.0912C37.7009 13.2406 34.6914 15.7923 34.6914 18.9656" fill="#E0E594"/>
<path d="M39.6966 28.1583V24.8869C41.365 23.2184 43.0008 21.5827 44.6693 19.9143C44.8001 19.2273 44.7674 18.573 44.6693 17.886C44.2767 16.054 42.8698 14.5492 41.0378 14.0912C37.7009 13.2406 34.6914 15.7923 34.6914 18.9656" stroke="#4E871C" stroke-width="3" stroke-miterlimit="10"/>
</svg>
