<svg width="80" height="80" viewBox="0 0 80 80" fill="none" xmlns="http://www.w3.org/2000/svg">
<g clip-path="url(#clip0_8631_30619)">
<path d="M73.3349 59.5215C66.6403 70.9499 54.2036 78.6248 40.0021 78.6248C25.8006 78.6248 13.3918 70.9499 6.69727 59.5215H73.3349Z" fill="#EEEFC9" stroke="#4E871C" stroke-width="3" stroke-miterlimit="10"/>
<path d="M78.6287 39.9999C78.6287 47.1147 76.696 53.7812 73.3347 59.5234H6.69705C3.30775 53.7812 1.375 47.1147 1.375 39.9999C1.375 18.6557 18.6857 1.37305 40.0019 1.37305C61.3181 1.37305 78.6287 18.6557 78.6287 39.9999Z" fill="#C6D64E" stroke="#4E871C" stroke-width="3" stroke-miterlimit="10"/>
<path d="M26.9481 24.7334C37.7882 31.6801 44.0346 44.7891 42.6061 57.366C42.41 59.3827 39.3568 59.2707 39.3008 57.2259C39.0207 46.4418 32.5222 36.2738 22.8865 31.8481C17.6765 29.1591 21.9902 21.5962 26.9481 24.7334Z" fill="#E0E594" stroke="#0F511A" stroke-width="3" stroke-miterlimit="10"/>
<path d="M52.9978 41.008C47.5637 44.2572 43.4742 50.3075 42.6058 57.3382C42.4938 58.2626 41.6815 58.9068 40.7571 58.7948C39.9728 58.7108 39.3846 58.0665 39.3005 57.3102C38.5162 49.3552 41.5694 40.6998 47.8719 34.6215C52.3536 30.3358 58.1798 37.5906 52.9978 41.008Z" fill="#E0E594" stroke="#0F511A" stroke-width="3" stroke-miterlimit="10"/>
<line x1="7.02734" y1="59.7305" x2="73.4678" y2="59.7305" stroke="#4E871C" stroke-width="3"/>
</g>
<defs>
<clipPath id="clip0_8631_30619">
<rect width="80" height="80" fill="white"/>
</clipPath>
</defs>
</svg>
