<svg width="80" height="80" viewBox="0 0 80 80" fill="none" xmlns="http://www.w3.org/2000/svg">
<path d="M74.1245 41.7421C74.1245 48.3845 72.3201 54.6084 69.182 59.9694C62.9319 70.6391 51.3208 77.8045 38.0623 77.8045C37.67 77.8045 37.2777 77.8045 36.9116 77.7783C31.9691 77.6214 27.288 76.4969 23.0516 74.5356C16.3046 71.4498 10.6821 66.3241 6.9687 59.9694C3.80442 54.6084 2 48.3845 2 41.7421C2 21.8149 18.1613 5.67969 38.0623 5.67969C43.214 5.67969 48.1043 6.75188 52.5238 8.71322C62.0951 12.8974 69.4958 21.1089 72.5555 31.2293C73.5754 34.5505 74.1245 38.0809 74.1245 41.7421Z" fill="#EEEFC9" stroke="#4E871C" stroke-width="3" stroke-miterlimit="10"/>
<path d="M29.983 40.4347C33.6659 40.4347 36.6515 37.4491 36.6515 33.7662C36.6515 30.0833 33.6659 27.0977 29.983 27.0977C26.3 27.0977 23.3145 30.0833 23.3145 33.7662C23.3145 37.4491 26.3 40.4347 29.983 40.4347Z" fill="#83AF1D" stroke="#4E871C" stroke-width="3" stroke-miterlimit="10"/>
<path d="M41.7508 49.0645V61.5648H36.9128V77.7784C31.9703 77.6215 27.2893 76.497 23.0528 74.5357V61.5648H18.2148V49.0645C21.9021 47.8616 25.8509 47.1816 29.9828 47.1816C34.1147 47.1816 38.0112 47.8616 41.7508 49.0645Z" fill="#83AF1D" stroke="#4E871C" stroke-width="3" stroke-miterlimit="10"/>
<path d="M77.4717 20.1153C77.4717 28.3791 70.8816 35.0476 62.6441 35.2045C62.5656 35.2045 62.461 35.2045 62.3826 35.2045H46.875L51.2161 30.8373L51.5037 30.5496C50.4838 29.4775 49.6209 28.2745 48.9409 26.9408C47.8949 24.8749 47.2934 22.5474 47.2934 20.0892C47.2934 11.7731 54.0665 5 62.3826 5C70.6986 5 77.4717 11.7731 77.4717 20.0892V20.1153Z" fill="#C6D64E" stroke="#0F511A" stroke-width="3" stroke-miterlimit="10"/>
<path d="M55.4266 21.1892C55.9901 21.1892 56.447 20.7323 56.447 20.1688C56.447 19.6053 55.9901 19.1484 55.4266 19.1484C54.8631 19.1484 54.4062 19.6053 54.4062 20.1688C54.4062 20.7323 54.8631 21.1892 55.4266 21.1892Z" fill="#0F511A" stroke="#0F511A" stroke-width="3" stroke-miterlimit="10"/>
<path d="M62.6961 21.1892C63.2597 21.1892 63.7165 20.7323 63.7165 20.1688C63.7165 19.6053 63.2597 19.1484 62.6961 19.1484C62.1326 19.1484 61.6758 19.6053 61.6758 20.1688C61.6758 20.7323 62.1326 21.1892 62.6961 21.1892Z" fill="#0F511A" stroke="#0F511A" stroke-width="3" stroke-miterlimit="10"/>
<path d="M69.9403 21.1892C70.5038 21.1892 70.9606 20.7323 70.9606 20.1688C70.9606 19.6053 70.5038 19.1484 69.9403 19.1484C69.3768 19.1484 68.9199 19.6053 68.9199 20.1688C68.9199 20.7323 69.3768 21.1892 69.9403 21.1892Z" fill="#0F511A" stroke="#0F511A" stroke-width="3" stroke-miterlimit="10"/>
</svg>
