<svg width="80" height="80" viewBox="0 0 80 80" fill="none" xmlns="http://www.w3.org/2000/svg">
<path d="M21.3238 59.8363V41.3018H15.7988V25.5978C23.474 23.6927 31.503 22.7129 39.7497 22.7129C47.9964 22.7129 56.0254 23.7199 63.6733 25.5978V41.3018H58.1754V59.8363" fill="#C6D64E"/>
<path d="M21.3238 59.8363V41.3018H15.7988V25.5978C23.474 23.6927 31.503 22.7129 39.7497 22.7129C47.9964 22.7129 56.0254 23.7199 63.6733 25.5978V41.3018H58.1754V59.8363" stroke="#4E871C" stroke-width="3" stroke-miterlimit="10"/>
<path d="M29.2438 17.2413C33.4526 17.2413 36.8646 13.8294 36.8646 9.62065C36.8646 5.41188 33.4526 2 29.2438 2C25.0349 2 21.623 5.41188 21.623 9.62065C21.623 13.8294 25.0349 17.2413 29.2438 17.2413Z" fill="#C6D64E" stroke="#4E871C" stroke-width="3" stroke-miterlimit="10"/>
<path d="M50.2828 17.2413C54.4916 17.2413 57.9035 13.8294 57.9035 9.62065C57.9035 5.41188 54.4916 2 50.2828 2C46.074 2 42.6621 5.41188 42.6621 9.62065C42.6621 13.8294 46.074 17.2413 50.2828 17.2413Z" fill="#C6D64E" stroke="#4E871C" stroke-width="3" stroke-miterlimit="10"/>
<path d="M39.75 29.9238V59.8349" stroke="#4E871C" stroke-width="3" stroke-miterlimit="10"/>
<path d="M39.7505 37.5165C42.0052 37.5165 43.833 35.6887 43.833 33.4341C43.833 31.1794 42.0052 29.3516 39.7505 29.3516C37.4958 29.3516 35.668 31.1794 35.668 33.4341C35.668 35.6887 37.4958 37.5165 39.7505 37.5165Z" fill="#E0E594" stroke="#4E871C" stroke-width="3" stroke-miterlimit="10"/>
<path d="M35.5038 60.4046V50.4705H32.5371V42.7954C34.7961 42.0606 37.2185 41.6523 39.7497 41.6523C42.2808 41.6523 44.6758 42.0606 46.962 42.7954V50.4705H43.9955V60.4046" fill="#E0E594"/>
<path d="M35.5038 60.4046V50.4705H32.5371V42.7954C34.7961 42.0606 37.2185 41.6523 39.7497 41.6523C42.2808 41.6523 44.6758 42.0606 46.962 42.7954V50.4705H43.9955V60.4046" stroke="#4E871C" stroke-width="3" stroke-miterlimit="10"/>
<path d="M71.8387 55.8054V65.6578H39.75V61.9836C46.8264 57.6289 55.1275 55.125 64.0547 55.125C66.722 55.125 69.3347 55.3427 71.8387 55.7782V55.8054Z" fill="#E0E594" stroke="#83AF1D" stroke-width="3" stroke-miterlimit="10"/>
<path d="M71.8387 55.8054V65.6578H39.75V61.9836C46.8264 57.6289 55.1275 55.125 64.0547 55.125C66.722 55.125 69.3347 55.3427 71.8387 55.7782V55.8054Z" fill="#E0E594" stroke="#83AF1D" stroke-width="3" stroke-miterlimit="10"/>
<path d="M7.66016 55.8054V65.6578H39.749V61.9836C32.6726 57.6289 24.3715 55.125 15.4443 55.125C12.7771 55.125 10.1641 55.3427 7.66016 55.7782V55.8054Z" fill="#E0E594" stroke="#83AF1D" stroke-width="3" stroke-miterlimit="10"/>
<path d="M2 65.6582L2.02708 72.9795H34.3065C34.3065 75.9733 36.756 78.4228 39.7499 78.4228C42.7437 78.4228 45.1932 75.9733 45.1932 72.9795H77.4725V65.6582H2Z" fill="#83AF1D" stroke="#0F511A" stroke-width="3" stroke-miterlimit="10"/>
</svg>
