<svg width="80" height="80" viewBox="0 0 80 80" fill="none" xmlns="http://www.w3.org/2000/svg">
<path d="M61.6565 39.9141C69.2727 42.6739 74.7129 49.9982 74.7129 58.5697C74.7129 61.8337 73.9434 64.8855 72.5369 67.6188C71.6612 69.3437 70.52 70.9625 69.1666 72.3424L69.5382 72.7405L75.2702 78.4725H54.8097C54.8097 78.4725 54.5709 78.4725 54.4647 78.4725C44.1947 78.2868 35.8355 70.3787 34.9863 60.2946" stroke="#0F511A" stroke-width="3" stroke-miterlimit="10"/>
<path d="M57.2789 28.7676C57.2789 42.8588 46.0003 54.2963 31.962 54.5351C31.8028 54.5351 31.6436 54.5351 31.4844 54.5351H5L12.4305 47.1047L12.9081 46.6271C11.1566 44.8225 9.67062 42.7261 8.50297 40.4704C6.69842 36.9675 5.69 32.9604 5.69 28.7676C5.69 14.5437 17.2337 3 31.4578 3C45.6819 3 57.2257 14.5437 57.2257 28.7676H57.2789Z" fill="#83AF1D" stroke="#4E871C" stroke-width="3" stroke-miterlimit="10"/>
<path d="M31.166 39.3027V44.6102" stroke="#EEEFC9" stroke-width="3" stroke-miterlimit="10"/>
<path d="M31.1389 36.4638V31.6872C33.5273 29.2988 35.9423 26.8839 38.3307 24.4956C38.5164 23.4872 38.4898 22.5584 38.2775 21.55C37.7202 18.8963 35.6504 16.7202 33.0232 16.0302C28.1933 14.783 23.788 18.4717 23.8146 23.1157" stroke="#EEEFC9" stroke-width="3" stroke-miterlimit="10"/>
</svg>
