<svg width="80" height="80" viewBox="0 0 80 80" fill="none" xmlns="http://www.w3.org/2000/svg">
<path d="M52.5183 71.5635C61.1373 71.5635 68.1244 64.5765 68.1244 55.9575C68.1244 47.3386 61.1373 40.3516 52.5183 40.3516C43.8992 40.3516 36.9121 47.3386 36.9121 55.9575C36.9121 64.5765 43.8992 71.5635 52.5183 71.5635Z" fill="#E0E594" stroke="#83AF1D" stroke-width="3" stroke-miterlimit="10"/>
<path d="M63.3496 67.1309L74.6066 78.4161" stroke="#83AF1D" stroke-width="3" stroke-miterlimit="10"/>
<path d="M31.1425 63.9175H3.45508V2.94336H30.8014C35.6908 2.94336 39.642 6.8946 39.642 11.7555V36.0883" stroke="#4E871C" stroke-width="3" stroke-miterlimit="10"/>
<path d="M39.6406 36.0883V11.7555C39.6406 6.8946 43.592 2.94336 48.4814 2.94336H75.8277V52.8313" stroke="#4E871C" stroke-width="3" stroke-miterlimit="10"/>
<path d="M10.1348 12.4961H28.7826" stroke="#0F511A" stroke-width="3" stroke-miterlimit="10"/>
<path d="M10.1348 21.7637H28.7826" stroke="#0F511A" stroke-width="3" stroke-miterlimit="10"/>
<path d="M10.1348 31.0293H28.7826" stroke="#0F511A" stroke-width="3" stroke-miterlimit="10"/>
<path d="M10.1348 40.2988H28.7826" stroke="#0F511A" stroke-width="3" stroke-miterlimit="10"/>
<path d="M10.1348 49.5645H28.7826" stroke="#0F511A" stroke-width="3" stroke-miterlimit="10"/>
<path d="M50.3594 12.4941H68.9787" stroke="#0F511A" stroke-width="3" stroke-miterlimit="10"/>
<path d="M50.3574 21.7637H68.9768" stroke="#0F511A" stroke-width="3" stroke-miterlimit="10"/>
<path d="M50.3574 31.0293H68.9768" stroke="#0F511A" stroke-width="3" stroke-miterlimit="10"/>
</svg>
