<svg width="80" height="80" viewBox="0 0 80 80" fill="none" xmlns="http://www.w3.org/2000/svg">
<g clip-path="url(#clip0_8631_30668)">
<path d="M40.3169 78.4645L39.3556 77.5031L17.7694 55.9168L15.0894 53.2367L8.2436 46.3617C1.25213 39.3702 1.25213 28.0672 8.2436 21.0757C15.2351 14.0841 26.5379 14.0841 33.5294 21.0757L40.3752 27.9215L47.2501 21.0757C54.2124 14.0841 65.5445 14.0841 72.5359 21.0757C76.8765 25.4454 78.5078 31.4756 77.4299 37.0979" stroke="#0F511A" stroke-width="3" stroke-miterlimit="10"/>
<path d="M75.4779 61.5092L71.8657 65.1506L58.4945 78.5219L49.4639 69.4912L45.1234 65.1506L41.5111 61.5092C37.8114 57.8095 37.8114 51.8376 41.5111 48.1379C45.1816 44.4673 51.1826 44.4673 54.8822 48.1379L58.4945 51.7793L62.1068 48.1379C64.9616 45.283 69.2148 44.6422 72.6814 46.2153C73.701 46.6522 74.6623 47.3222 75.4779 48.1379C79.1776 51.8376 79.1776 57.8095 75.4779 61.5092Z" fill="#E0E594" stroke="#83AF1D" stroke-width="3" stroke-miterlimit="10"/>
</g>
<defs>
<clipPath id="clip0_8631_30668">
<rect width="80" height="80" fill="white"/>
</clipPath>
</defs>
</svg>
