<svg width="24" height="24" viewBox="0 0 24 24" fill="none" xmlns="http://www.w3.org/2000/svg">
<path fill-rule="evenodd" clip-rule="evenodd" d="M3.73913 3.73913H12.4348V7.21739H15.913V9.82609H17.6522V5.9913L13.6609 2H3.73913C3.27788 2 2.83553 2.18323 2.50938 2.50938C2.18323 2.83553 2 3.27788 2 3.73913L2 19.3913C2 19.8525 2.18323 20.2949 2.50938 20.6211C2.83553 20.9472 3.27788 21.1304 3.73913 21.1304H10.6957V19.3913H3.73913V3.73913ZM12.4348 9.82609H5.47826V11.5652H12.4348V9.82609ZM5.47826 15.0435H9.82609V13.3043H5.47826V15.0435ZM15.8 18.3043C15.3047 18.3043 14.8205 18.1575 14.4087 17.8823C13.9968 17.6071 13.6758 17.216 13.4863 16.7584C13.2967 16.3008 13.2471 15.7972 13.3438 15.3114C13.4404 14.8256 13.6789 14.3794 14.0292 14.0292C14.3794 13.6789 14.8256 13.4404 15.3114 13.3438C15.7972 13.2471 16.3008 13.2967 16.7584 13.4863C17.216 13.6758 17.6071 13.9968 17.8823 14.4087C18.1575 14.8205 18.3043 15.3047 18.3043 15.8C18.3043 16.4642 18.0405 17.1012 17.5708 17.5708C17.1012 18.0405 16.4642 18.3043 15.8 18.3043V18.3043ZM19.2783 18.0783C19.7385 17.3948 19.9838 16.5892 19.9826 15.7652C19.9826 14.9328 19.7358 14.1191 19.2733 13.427C18.8109 12.7349 18.1535 12.1954 17.3845 11.8769C16.6155 11.5583 15.7692 11.475 14.9528 11.6374C14.1364 11.7998 13.3865 12.2006 12.7979 12.7892C12.2093 13.3778 11.8085 14.1277 11.6461 14.9441C11.4837 15.7605 11.567 16.6068 11.8856 17.3758C12.2041 18.1449 12.7436 18.8022 13.4357 19.2646C14.1278 19.7271 14.9415 19.9739 15.7739 19.9739C16.5979 19.9751 17.4035 19.7298 18.087 19.2696L20.8087 22L22 20.8087L19.2783 18.0783Z" fill="#202121"/>
</svg>
