<svg width="24" height="24" viewBox="0 0 24 24" fill="none" xmlns="http://www.w3.org/2000/svg">
<path fill-rule="evenodd" clip-rule="evenodd" d="M14 18.7V15.44C14.5962 15.0923 15.0923 14.5962 15.44 14H18.7C18.3675 15.1116 17.7638 16.123 16.9434 16.9434C16.123 17.7638 15.1116 18.3675 14 18.7V18.7ZM5.3 14H8.56C8.90773 14.5962 9.4038 15.0923 10 15.44V18.7C8.88844 18.3675 7.87698 17.7638 7.05657 16.9434C6.23616 16.123 5.63254 15.1116 5.3 14V14ZM10 5.3V8.56C9.39885 8.90126 8.90126 9.39885 8.56 10H5.3C5.63254 8.88844 6.23616 7.87698 7.05657 7.05657C7.87698 6.23616 8.88844 5.63254 10 5.3V5.3ZM12 14C11.6044 14 11.2178 13.8827 10.8889 13.6629C10.56 13.4432 10.3036 13.1308 10.1522 12.7654C10.0009 12.3999 9.96126 11.9978 10.0384 11.6098C10.1156 11.2219 10.3061 10.8655 10.5858 10.5858C10.8655 10.3061 11.2219 10.1156 11.6098 10.0384C11.9978 9.96126 12.3999 10.0009 12.7654 10.1522C13.1308 10.3036 13.4432 10.56 13.6629 10.8889C13.8827 11.2178 14 11.6044 14 12C14 12.5304 13.7893 13.0391 13.4142 13.4142C13.0391 13.7893 12.5304 14 12 14ZM18.7 10H15.44C15.0987 9.39885 14.6012 8.90126 14 8.56V5.3C15.1116 5.63254 16.123 6.23616 16.9434 7.05657C17.7638 7.87698 18.3675 8.88844 18.7 10V10ZM21 10H20.77C20.3929 8.34888 19.5575 6.83767 18.3599 5.64008C17.1623 4.44249 15.6511 3.60713 14 3.23V3C14 2.73478 13.8946 2.48043 13.7071 2.29289C13.5196 2.10536 13.2652 2 13 2H11C10.7348 2 10.4804 2.10536 10.2929 2.29289C10.1054 2.48043 10 2.73478 10 3V3.23C8.34888 3.60713 6.83767 4.44249 5.64008 5.64008C4.44249 6.83767 3.60713 8.34888 3.23 10H3C2.73478 10 2.48043 10.1054 2.29289 10.2929C2.10536 10.4804 2 10.7348 2 11V13C2 13.2652 2.10536 13.5196 2.29289 13.7071C2.48043 13.8946 2.73478 14 3 14H3.23C3.60713 15.6511 4.44249 17.1623 5.64008 18.3599C6.83767 19.5575 8.34888 20.3929 10 20.77V21C10 21.2652 10.1054 21.5196 10.2929 21.7071C10.4804 21.8946 10.7348 22 11 22H13C13.2652 22 13.5196 21.8946 13.7071 21.7071C13.8946 21.5196 14 21.2652 14 21V20.77C15.6511 20.3929 17.1623 19.5575 18.3599 18.3599C19.5575 17.1623 20.3929 15.6511 20.77 14H21C21.2652 14 21.5196 13.8946 21.7071 13.7071C21.8946 13.5196 22 13.2652 22 13V11C22 10.7348 21.8946 10.4804 21.7071 10.2929C21.5196 10.1054 21.2652 10 21 10Z" fill="#202121"/>
</svg>
